<?xml version="1.0" encoding="UTF-8"?>
<svg id="Layer_1" xmlns="http://www.w3.org/2000/svg" version="1.1" viewBox="0 0 300 300">
  <!-- Generator: Adobe Illustrator 29.0.1, SVG Export Plug-In . SVG Version: 2.1.0 Build 192)  -->
  <defs>
    <style>
      .st0 {
        fill: #005724;
      }
    </style>
  </defs>
  <path class="st0" d="M146.6,151.1H2.5c-2.2,0-3.3,2.6-1.7,4.1l144.1,144.1c1.5,1.5,4.2.5,4.2-1.7v-144.1c0-1.3-1.1-2.4-2.5-2.4Z"/>
  <path class="st0" d="M297.5,151.1h-144.1c-2.2,0-3.3,2.6-1.7,4.1l144.1,144.1c1.5,1.5,4.2.5,4.2-1.7v-144.1c0-1.3-1.1-2.4-2.5-2.4Z"/>
  <path class="st0" d="M146.6,0H2.5C.3,0-.8,2.6.7,4.1l144.1,144.1c1.5,1.5,4.2.5,4.2-1.7V2.4c0-1.3-1.1-2.4-2.5-2.4Z"/>
  <path class="st0" d="M297.5,0h-144.1c-2.2,0-3.3,2.6-1.7,4.1l144.1,144.1c1.5,1.5,4.2.5,4.2-1.7V2.4c0-1.3-1.1-2.4-2.5-2.4Z"/>
</svg>