<?xml version="1.0" encoding="UTF-8"?>
<svg id="Layer_1" xmlns="http://www.w3.org/2000/svg" version="1.1" viewBox="0 0 148 48">
  <!-- Generator: Adobe Illustrator 29.0.1, SVG Export Plug-In . SVG Version: 2.1.0 Build 192)  -->
  <path d="M141.1,18.6s0,0,0,0v.5s0,0,0,0h1v3.3s0,0,0,0h.5s0,0,0,0v-3.3h1s0,0,0,0v-.5s0,0,0,0"/>
  <path d="M101.1,13.7c0,1.1.8,1.9,1.9,1.9s1.9-.8,1.9-1.9-.8-1.9-1.9-1.9-1.9.8-1.9,1.9Z"/>
  <path d="M111.1,19.9h-.1c0,0-.2-.6-.2-.6,0-.2-.3-.4-.5-.4h-1.2c-.3,0-.6.3-.6.6v15.7c0,.3.3.6.6.6h2.2c.3,0,.6-.3.6-.6v-12.7h0c.9-.5,1.8-.8,3.6-.8s2.6.8,2.6,2.1v11.4c0,.3.3.6.6.6h2.2c.3,0,.6-.3.6-.6v-11.3c0-3.5-2-5.3-5.9-5.3s-2.9.4-4.3,1.3"/>
  <path d="M104.7,19.5c0-.3-.3-.6-.6-.6h-2.1c-.3,0-.6.3-.6.6v15.7c0,.3.3.6.6.6h2.1c.3,0,.6-.3.6-.6"/>
  <path d="M97.4,11.7c0-.3-.3-.6-.6-.6h-2.1c-.3,0-.6.3-.6.6v23.5c0,.3.3.6.6.6h2.1c.3,0,.6-.3.6-.6"/>
  <path d="M64.5,25.9c.2-2.2.7-4.2,3.8-4.2s3.1,1.4,3.2,4.2h0c0,.1-7,.1-7,.1h0ZM61.1,27.4c0,2.2,0,8.7,7.2,8.7s3.6-.1,5.4-.7c.2,0,.3-.3.3-.5v-1.8c0-.2,0-.4-.3-.5-.2-.1-.3,0-.5,0-1.6.3-2.9.4-5,.4-3,0-3.6-1.9-3.8-3.9h0c0-.1,9.7-.1,9.7-.1.3,0,.6-.3.6-.6v-1c0-4.2-.5-8.7-6.5-8.7-7.2,0-7.2,6.6-7.2,8.7Z"/>
  <path d="M80.8,25.9c.2-2.2.7-4.2,3.8-4.2s3.1,1.4,3.2,4.2h0c0,.1-7,.1-7,.1h0ZM77.4,27.4c0,2.2,0,8.7,7.2,8.7s3.6-.1,5.4-.7c.2,0,.3-.3.3-.5v-1.8c0-.2-.1-.4-.3-.5-.2-.1-.4,0-.5,0-1.6.3-2.9.4-5,.4-3,0-3.6-1.9-3.8-3.9h0c0-.1,9.7-.1,9.7-.1.3,0,.6-.3.6-.6v-1c0-4.2-.5-8.7-6.5-8.7-7.2,0-7.2,6.6-7.2,8.7Z"/>
  <path d="M127.6,25.9c.2-2.2.7-4.2,3.8-4.2s3.1,1.4,3.2,4.2h0c0,.1-7,.1-7,.1h0ZM124.2,27.4c0,2.2,0,8.7,7.2,8.7s3.6-.1,5.4-.7c.2,0,.3-.3.3-.5v-1.8c0-.2,0-.4-.3-.5-.2-.1-.4,0-.5,0-1.6.3-2.9.4-5,.4-3,0-3.6-1.9-3.8-3.9h0c0-.1,9.7-.1,9.7-.1.3,0,.6-.3.6-.6v-1c0-4.2-.5-8.7-6.5-8.7-7.2,0-7.2,6.6-7.2,8.7Z"/>
  <path d="M50.5,24.6c3.4,0,4.6,1,4.6,3.9s-.6,3.9-4.7,3.9h-4.9v-7.9h5ZM50.2,14.3c3.6,0,4.1,1.7,4.1,3.5s-1.2,3.5-3.8,3.5h-5v-7h4.7ZM42.6,11c-.3,0-.6.3-.6.6v23.5c0,.3.3.6.6.6h7.7c5.5,0,8.5-2.6,8.5-7.2s-1.2-4.7-3.3-5.8c0,0,0,0-.1,0,0,0,0,0,0,0,1.6-1.2,2.5-2.9,2.5-4.8s-1-6.8-7.9-6.8"/>
  <path d="M147.3,18.6s0,0,0,0c0,0-1,2.3-1.1,2.5,0-.2-1.1-2.5-1.1-2.5,0,0,0,0,0,0h-.7s0,0,0,0v3.9s0,0,0,0h.5s0,0,0,0c0,0,0,0,0,0,0,0,0-2.2,0-2.7.2.4,1,2.2,1,2.2,0,0,0,0,0,0h.4s0,0,0,0c0,0,.8-1.8,1-2.2,0,.5,0,2.7,0,2.7,0,0,0,0,0,0,0,0,0,0,0,0h.5s0,0,0,0v-3.9s0,0,0,0"/>
  <path d="M16,8c-4.9,0-9.3,2.2-12.3,5.7h24.5c-2.9-3.5-7.3-5.7-12.3-5.7Z"/>
  <path d="M0,24c0,1.2.1,2.3.4,3.4h31.2c.2-1.1.4-2.3.4-3.4s-.1-2.3-.4-3.4H.4C.1,21.7,0,22.8,0,24Z"/>
  <path d="M16,40c4.9,0,9.3-2.2,12.2-5.7H3.8c2.9,3.5,7.3,5.7,12.2,5.7Z"/>
</svg>