<?xml version="1.0" encoding="UTF-8"?>
<svg id="Layer_1" xmlns="http://www.w3.org/2000/svg" version="1.1" viewBox="0 0 800 800">
  <!-- Generator: Adobe Illustrator 29.0.1, SVG Export Plug-In . SVG Version: 2.1.0 Build 192)  -->
  <defs>
    <style>
      .st0 {
        fill: #fff;
      }
    </style>
  </defs>
  <path d="M91.1,347.2c0-106.6,0-159.9,12.8-177.8,12.8-17.9,63.6-35.1,165.3-69.4l19.4-6.5c53-17.9,79.5-26.8,106.9-26.8s53.9,8.9,106.9,26.8l19.4,6.5c101.7,34.3,152.5,51.5,165.3,69.4,12.8,17.9,12.8,71.2,12.8,177.8v52.5c0,187.9-143.3,279.1-233.3,317.9-24.4,10.5-36.6,15.8-71.1,15.8s-46.7-5.3-71.1-15.8c-89.9-38.7-233.3-129.9-233.3-317.9v-52.5Z"/>
  <g>
    <path class="st0" d="M228,210.4h46.6c.3,1.1.5,2.3.7,3.8.2,1.5.3,3,.3,4.5,0,6.1-.9,11.9-2.8,17.3-1.9,5.4-4.8,10.2-8.8,14.5-4.2,4.5-9.3,8-15.3,10.5-5.9,2.5-12.7,3.7-20.3,3.7s-13.4-1.2-19.5-3.7-11.4-5.9-15.9-10.4c-4.5-4.4-8.1-9.7-10.7-15.7-2.7-6.1-4-12.7-4-19.8s1.3-13.8,4-19.8c2.7-6.1,6.2-11.3,10.7-15.7,4.5-4.4,9.8-7.9,15.9-10.4,6.1-2.5,12.6-3.7,19.5-3.7s14.6,1.3,20.6,4c6.1,2.7,11.3,6.3,15.6,11l-12.3,12.1c-3.1-3.3-6.5-5.8-10.4-7.5-3.8-1.7-8.4-2.6-13.7-2.6s-8.4.8-12.3,2.3c-3.9,1.5-7.3,3.7-10.2,6.6-2.9,2.8-5.2,6.3-7,10.3-1.7,4-2.6,8.5-2.6,13.5s.9,9.4,2.6,13.5c1.7,4,4.1,7.5,7,10.3,3,2.8,6.4,5,10.3,6.6,3.9,1.5,8,2.3,12.5,2.3s9.3-.7,12.8-2.2c3.5-1.5,6.5-3.3,9-5.6,1.8-1.6,3.3-3.6,4.6-6,1.3-2.4,2.3-5.2,3-8.2h-29.9v-15.3Z"/>
    <path class="st0" d="M318.3,195.4c5,0,9.7.9,13.9,2.6,4.2,1.7,7.8,4.1,10.9,7.2,3.1,3.1,5.4,6.7,7.2,10.9,1.7,4.2,2.6,8.9,2.6,13.9s-.9,9.7-2.6,13.9c-1.7,4.2-4.1,7.9-7.2,10.9-3.1,3.1-6.7,5.4-10.9,7.2-4.2,1.7-8.8,2.6-13.9,2.6s-9.7-.9-13.9-2.6c-4.2-1.7-7.8-4.1-10.9-7.2s-5.4-6.7-7.2-10.9c-1.7-4.2-2.6-8.9-2.6-13.9s.9-9.7,2.6-13.9c1.7-4.2,4.1-7.9,7.2-10.9s6.7-5.4,10.9-7.2c4.2-1.7,8.8-2.6,13.9-2.6ZM318.3,248.7c2.2,0,4.4-.4,6.4-1.3,2.1-.8,3.9-2.1,5.5-3.6s2.9-3.5,3.8-5.8c.9-2.3,1.4-4.9,1.4-7.8s-.5-5.5-1.4-7.8c-.9-2.3-2.2-4.2-3.8-5.8s-3.4-2.8-5.5-3.6c-2.1-.8-4.2-1.3-6.4-1.3s-4.5.4-6.5,1.3c-2,.8-3.8,2.1-5.4,3.6s-2.9,3.5-3.8,5.8c-.9,2.3-1.4,4.9-1.4,7.8s.5,5.5,1.4,7.8c.9,2.3,2.2,4.2,3.8,5.8s3.4,2.8,5.4,3.6c2,.8,4.2,1.3,6.5,1.3Z"/>
    <path class="st0" d="M394.8,195.4c5,0,9.7.9,13.9,2.6,4.2,1.7,7.8,4.1,10.9,7.2,3.1,3.1,5.4,6.7,7.2,10.9,1.7,4.2,2.6,8.9,2.6,13.9s-.9,9.7-2.6,13.9c-1.7,4.2-4.1,7.9-7.2,10.9-3.1,3.1-6.7,5.4-10.9,7.2-4.2,1.7-8.8,2.6-13.9,2.6s-9.7-.9-13.9-2.6c-4.2-1.7-7.8-4.1-10.9-7.2s-5.4-6.7-7.2-10.9c-1.7-4.2-2.6-8.9-2.6-13.9s.9-9.7,2.6-13.9c1.7-4.2,4.1-7.9,7.2-10.9s6.7-5.4,10.9-7.2c4.2-1.7,8.8-2.6,13.9-2.6ZM394.8,248.7c2.2,0,4.4-.4,6.4-1.3,2.1-.8,3.9-2.1,5.5-3.6,1.6-1.6,2.9-3.5,3.8-5.8.9-2.3,1.4-4.9,1.4-7.8s-.5-5.5-1.4-7.8c-.9-2.3-2.2-4.2-3.8-5.8-1.6-1.6-3.4-2.8-5.5-3.6-2.1-.8-4.2-1.3-6.4-1.3s-4.5.4-6.5,1.3c-2,.8-3.8,2.1-5.4,3.6s-2.9,3.5-3.8,5.8c-.9,2.3-1.4,4.9-1.4,7.8s.5,5.5,1.4,7.8c.9,2.3,2.2,4.2,3.8,5.8s3.4,2.8,5.4,3.6c2,.8,4.2,1.3,6.5,1.3Z"/>
    <path class="st0" d="M470.4,293.4c-4.6,0-8.7-.6-12.3-1.8s-6.7-2.7-9.4-4.6c-2.7-1.9-4.9-4-6.6-6.3-1.8-2.3-3.1-4.6-3.8-6.9l16.6-6.6c1.2,3.5,3.3,6.1,6.1,8,2.8,1.9,6,2.9,9.4,2.9,5.5,0,9.8-1.8,13-5.3,3.2-3.6,4.8-8.5,4.8-14.7v-4.5h-1.1c-2,2.8-4.7,5.1-8,6.7-3.3,1.6-7.2,2.5-11.7,2.5s-7.7-.8-11.3-2.4c-3.7-1.6-6.9-3.8-9.8-6.8-2.8-2.9-5.1-6.5-6.9-10.6-1.8-4.1-2.7-8.7-2.7-13.8s.9-9.7,2.7-13.9c1.8-4.2,4.1-7.7,6.9-10.6,2.8-2.9,6.1-5.2,9.8-6.8,3.7-1.6,7.5-2.4,11.3-2.4s8.4.8,11.7,2.5c3.3,1.6,6,3.9,8,6.7h1.1v-7h16.6v60.4c0,5.5-.8,10.4-2.5,14.8-1.7,4.4-4,8.1-7,11.1-3,3.1-6.6,5.4-10.8,7-4.2,1.6-8.9,2.5-14,2.5ZM471.1,246.9c2.1,0,4.2-.4,6.3-1.2,2.1-.8,3.9-1.9,5.5-3.5,1.6-1.5,2.9-3.4,3.8-5.6,1-2.2,1.5-4.8,1.5-7.6s-.5-5.4-1.5-7.7c-1-2.3-2.3-4.1-3.8-5.7-1.6-1.5-3.4-2.7-5.5-3.5-2.1-.8-4.2-1.2-6.3-1.2s-4.2.4-6.2,1.2c-2,.8-3.8,2-5.4,3.5-1.6,1.6-2.9,3.5-3.8,5.7-1,2.2-1.5,4.8-1.5,7.6s.5,5.4,1.5,7.6c1,2.2,2.3,4.1,3.8,5.6,1.6,1.5,3.4,2.7,5.4,3.5,2,.8,4.1,1.2,6.2,1.2Z"/>
    <path class="st0" d="M519.6,262.6v-95h17.4v95h-17.4Z"/>
    <path class="st0" d="M612.8,246.9c-3,5.3-7.1,9.6-12.1,12.9-5.1,3.3-11.3,4.9-18.6,4.9s-9.5-.9-13.7-2.6c-4.2-1.7-7.9-4.1-10.9-7.2-3.1-3.1-5.5-6.7-7.2-10.9-1.7-4.2-2.6-8.8-2.6-13.9s.8-9.1,2.5-13.3c1.7-4.2,4-7.9,7-11,3-3.1,6.6-5.6,10.7-7.5,4.1-1.9,8.6-2.8,13.6-2.8s9.9.9,13.9,2.6c4.1,1.7,7.5,4.1,10.2,7.2,2.7,3.1,4.8,6.7,6.2,10.8,1.4,4.2,2.1,8.7,2.1,13.5v1.6c0,.5-.1,1-.1,1.5,0,.4-.1.9-.1,1.5h-49c.4,2.7,1.1,4.9,2.2,6.8,1.1,1.9,2.5,3.5,4.1,4.8,1.6,1.3,3.4,2.2,5.4,2.8,1.9.6,3.9.9,6,.9,4,0,7.3-.9,9.9-2.7,2.6-1.8,4.7-4.1,6.2-6.8l14.5,7.2ZM597,221.7c0-1.1-.5-2.4-1.1-3.8-.7-1.4-1.6-2.7-2.9-4-1.3-1.2-2.9-2.3-4.8-3.1-1.9-.8-4.2-1.2-6.8-1.2s-7,1.1-9.8,3.2c-2.8,2.1-4.8,5.1-6,8.9h31.4Z"/>
  </g>
  <g>
    <path class="st0" d="M303.5,566.2c-1.4,2.8-3.4,5-6,6.8-2.6,1.8-5.8,2.6-9.6,2.6s-4.9-.4-7-1.3c-2.1-.9-4-2.1-5.5-3.7-1.5-1.6-2.7-3.4-3.6-5.5-.9-2.1-1.3-4.5-1.3-7s.4-4.9,1.3-7c.9-2.1,2.1-4,3.6-5.5,1.5-1.5,3.4-2.7,5.5-3.6,2.1-.9,4.5-1.3,7-1.3,3.8,0,7,.9,9.6,2.6,2.6,1.7,4.5,4,5.7,6.8l-8,3.3c-.8-1.5-1.7-2.7-2.9-3.4-1.2-.8-2.7-1.2-4.5-1.2s-2.3.2-3.3.7c-1,.4-1.9,1.1-2.7,1.9-.8.8-1.4,1.8-1.8,2.9-.4,1.2-.7,2.5-.7,3.9s.2,2.7.7,3.9c.4,1.2,1.1,2.1,1.8,2.9.8.8,1.7,1.4,2.7,1.9,1,.4,2.1.7,3.3.7,1.8,0,3.4-.4,4.7-1.2,1.3-.8,2.3-2,3-3.6l8,3.5Z"/>
    <path class="st0" d="M339.6,566.7c-1.5,2.7-3.6,4.8-6.1,6.5-2.6,1.7-5.7,2.5-9.4,2.5s-4.8-.4-6.9-1.3c-2.1-.9-4-2.1-5.5-3.7-1.6-1.6-2.8-3.4-3.7-5.5-.9-2.1-1.3-4.5-1.3-7s.4-4.6,1.3-6.7c.8-2.1,2-4,3.6-5.6,1.5-1.6,3.3-2.8,5.4-3.8,2.1-.9,4.4-1.4,6.9-1.4s5,.4,7,1.3c2.1.9,3.8,2.1,5.2,3.6,1.4,1.5,2.4,3.4,3.1,5.5.7,2.1,1.1,4.4,1.1,6.8v.8c0,.3,0,.5,0,.7,0,.2,0,.5,0,.7h-24.7c.2,1.3.5,2.5,1.1,3.5.6,1,1.2,1.8,2.1,2.4.8.6,1.7,1.1,2.7,1.4,1,.3,2,.4,3,.4,2,0,3.7-.5,5-1.4,1.3-.9,2.4-2.1,3.1-3.4l7.3,3.6ZM331.6,553.9c0-.6-.2-1.2-.6-1.9-.3-.7-.8-1.4-1.5-2-.6-.6-1.5-1.1-2.4-1.5-1-.4-2.1-.6-3.5-.6s-3.5.5-5,1.6c-1.4,1.1-2.4,2.6-3,4.5h15.9Z"/>
    <path class="st0" d="M354,546.8h.5c.9-1.7,2.2-3,3.9-4,1.7-1,3.6-1.5,5.7-1.5s1.4,0,1.8,0c.4,0,.9.1,1.3.3v8.7c-.5-.2-1-.4-1.6-.5-.6-.1-1.3-.2-2.2-.2-2.8,0-4.9.8-6.5,2.5-1.6,1.7-2.4,4-2.4,6.9v16.1h-8.8v-32.8h8.2v4.6ZM377,549.3h-5.8v-7.5h5.8v-10h8.8v10h8v7.5h-8v13.1c0,.8,0,1.5.2,2.2.2.7.5,1.2.9,1.7.6.7,1.5,1.1,2.7,1.1s1.4,0,1.8-.2c.4-.2.9-.4,1.3-.6l2.5,7.7c-1,.5-2.1.9-3.3,1.1-1.2.2-2.5.4-3.9.4s-3.1-.3-4.5-.8c-1.3-.5-2.4-1.2-3.3-2.2-2.1-2.1-3.1-5-3.1-8.8v-14.7Z"/>
    <path class="st0" d="M405.4,537.3c-.8,0-1.5-.1-2.2-.4-.7-.3-1.3-.7-1.8-1.2-.5-.5-.9-1.1-1.2-1.8-.3-.7-.4-1.4-.4-2.2s.1-1.5.4-2.2c.3-.7.7-1.3,1.2-1.8.5-.5,1.1-.9,1.8-1.2.7-.3,1.4-.4,2.2-.4,1.6,0,2.9.5,4,1.6,1.1,1.1,1.7,2.4,1.7,4s-.6,2.9-1.7,4c-1.1,1.1-2.5,1.6-4,1.6ZM401.1,574.6v-32.8h8.8v32.8h-8.8Z"/>
    <path class="st0" d="M430.4,574.6h-8.8v-25.3h-5.9v-7.5h5.9v-3.2c0-2,.3-3.8.9-5.3.6-1.5,1.5-2.8,2.6-3.9,1.1-1,2.4-1.9,4-2.4,1.5-.6,3.2-.8,5-.8s1.6,0,2.1.1c.5,0,1,.2,1.5.4l.4,7.7c-.3-.1-.8-.3-1.2-.4-.4,0-1.2-.4-1.8-.4-1.3,0-2.9,1.2-3.6,2-.8.8-1.1,2-1.1,3.5v2.7h21.2v32.8h-8.8v-25.3h-12.4v25.3Z"/>
    <path class="st0" d="M490.4,566.7c-1.5,2.7-3.6,4.8-6.1,6.5-2.6,1.7-5.7,2.5-9.4,2.5s-4.8-.4-6.9-1.3-4-2.1-5.5-3.7-2.8-3.4-3.7-5.5c-.9-2.1-1.3-4.5-1.3-7s.4-4.6,1.3-6.7c.8-2.1,2-4,3.5-5.6,1.5-1.6,3.3-2.8,5.4-3.8,2.1-.9,4.4-1.4,6.9-1.4s5,.4,7,1.3c2.1.9,3.8,2.1,5.2,3.6,1.4,1.5,2.4,3.4,3.1,5.5.7,2.1,1.1,4.4,1.1,6.8v.8c0,.3,0,.5,0,.7,0,.2,0,.5,0,.7h-24.7c.2,1.3.5,2.5,1.1,3.5.6,1,1.2,1.8,2.1,2.4.8.6,1.7,1.1,2.7,1.4,1,.3,2,.4,3,.4,2,0,3.7-.5,5-1.4,1.3-.9,2.4-2.1,3.1-3.4l7.3,3.6ZM482.4,553.9c0-.6-.2-1.2-.6-1.9-.3-.7-.8-1.4-1.5-2-.6-.6-1.5-1.1-2.4-1.5-1-.4-2.1-.6-3.5-.6s-3.5.5-5,1.6c-1.4,1.1-2.4,2.6-3,4.5h15.9Z"/>
    <path class="st0" d="M521.3,570.6h-.5c-.8,1.4-2.1,2.6-3.8,3.5-1.7,1-3.8,1.5-6.3,1.5s-4.1-.4-6-1.3c-1.9-.9-3.6-2.1-5-3.6-1.5-1.5-2.6-3.4-3.5-5.5-.8-2.1-1.3-4.5-1.3-7s.4-4.9,1.3-7c.8-2.1,2-4,3.5-5.5,1.5-1.5,3.1-2.7,5-3.6,1.9-.9,3.9-1.3,6-1.3s4.6.5,6.3,1.5c1.7,1,2.9,2.2,3.8,3.6h.5l-.5-4.7v-14.4h8.8v48h-8.2v-4ZM512.5,567.5c1.2,0,2.3-.2,3.3-.6,1-.4,2-1,2.8-1.8.8-.8,1.5-1.8,1.9-2.9.5-1.2.7-2.5.7-4s-.2-2.8-.7-4c-.5-1.2-1.1-2.1-1.9-2.9-.8-.8-1.7-1.4-2.8-1.8-1-.4-2.2-.6-3.3-.6s-2.3.2-3.3.7c-1,.4-2,1.1-2.8,1.9s-1.5,1.8-1.9,2.9c-.5,1.2-.7,2.5-.7,3.9s.2,2.7.7,3.9c.5,1.2,1.1,2.1,1.9,2.9s1.7,1.4,2.8,1.9c1,.4,2.2.7,3.3.7Z"/>
  </g>
  <g>
    <g>
      <path class="st0" d="M334.2,458.2c-7.5,0-14.2-1.2-20.3-3.6-6.1-2.4-11.3-6-15.5-10.6-4.3-4.6-7.6-10.2-9.9-16.8-2.4-6.6-3.6-14.1-3.6-22.5v-76.6h24v78c0,4.3.5,8.2,1.6,11.7,1.1,3.6,2.7,6.6,4.8,9.2,2.1,2.6,4.8,4.7,8,6.1,3.2,1.5,6.9,2.2,11,2.2s8-.7,11.2-2.2c3.2-1.5,5.9-3.5,8-6.1,2.1-2.6,3.7-5.7,4.8-9.2,1.1-3.6,1.6-7.5,1.6-11.7v-78h24v76.6c0,7.9-1.2,15.2-3.5,21.8-2.3,6.6-5.6,12.2-9.9,16.9-4.3,4.7-9.5,8.3-15.6,10.9-6.1,2.6-12.9,3.9-20.5,3.9Z"/>
      <path class="st0" d="M438.3,388.9l-38.6-60.8h29.7l24.7,41.6h1.4l24.7-41.6h29.7l-38.6,60.8,41.8,66.5h-29.8l-27.7-45.8h-1.4l-27.7,45.8h-29.8l41.8-66.5Z"/>
    </g>
    <g>
      <path class="st0" d="M312.2,513.1h-.6c-.9,1.6-2.3,2.9-4.2,4-1.9,1.1-4.3,1.7-7.1,1.7s-4.6-.5-6.7-1.5c-2.1-1-4-2.3-5.6-4.1-1.6-1.7-2.9-3.8-3.9-6.2-1-2.4-1.4-5-1.4-7.9s.5-5.5,1.4-7.9c.9-2.4,2.2-4.5,3.9-6.2,1.6-1.7,3.5-3.1,5.6-4.1,2.1-1,4.4-1.5,6.7-1.5s5.2.6,7.1,1.7c1.9,1.1,3.3,2.4,4.2,4h.6l-.6-5.3v-16.1h9.8v53.7h-9.2v-4.4ZM302.4,509.6c1.3,0,2.5-.2,3.7-.7,1.2-.5,2.2-1.2,3.1-2.1.9-.9,1.6-2,2.2-3.3.5-1.3.8-2.8.8-4.4s-.3-3.1-.8-4.4c-.6-1.3-1.3-2.4-2.2-3.3-.9-.9-1.9-1.6-3.1-2.1-1.2-.5-2.4-.7-3.7-.7s-2.5.3-3.7.8c-1.2.5-2.2,1.2-3.1,2.1-.9.9-1.6,2-2.2,3.3-.6,1.3-.8,2.8-.8,4.4s.3,3.1.8,4.4c.5,1.3,1.3,2.4,2.2,3.3.9.9,1.9,1.6,3.1,2.1,1.2.5,2.4.8,3.7.8Z"/>
      <path class="st0" d="M364.3,508.7c-1.7,3-4,5.4-6.9,7.3-2.9,1.9-6.4,2.8-10.5,2.8s-5.4-.5-7.8-1.5c-2.4-1-4.4-2.3-6.2-4.1-1.8-1.8-3.1-3.8-4.1-6.2-1-2.4-1.5-5-1.5-7.8s.5-5.2,1.4-7.5c.9-2.4,2.3-4.5,4-6.2,1.7-1.8,3.7-3.2,6-4.2,2.3-1.1,4.9-1.6,7.7-1.6s5.6.5,7.9,1.5c2.3,1,4.2,2.3,5.8,4.1,1.5,1.7,2.7,3.8,3.5,6.1.8,2.4,1.2,4.9,1.2,7.7v.9c0,.3,0,.6,0,.8,0,.3,0,.5,0,.8h-27.7c.2,1.5.6,2.8,1.2,3.9.6,1.1,1.4,2,2.3,2.7.9.7,1.9,1.3,3,1.6,1.1.3,2.2.5,3.4.5,2.3,0,4.1-.5,5.6-1.5,1.5-1,2.6-2.3,3.5-3.9l8.2,4.1ZM355.4,494.4c0-.7-.3-1.4-.6-2.2-.4-.8-.9-1.6-1.7-2.3-.7-.7-1.6-1.3-2.7-1.7-1.1-.5-2.4-.7-3.9-.7s-4,.6-5.6,1.8c-1.6,1.2-2.7,2.9-3.4,5h17.8Z"/>
      <path class="st0" d="M386.2,518.7c-2.4,0-4.5-.3-6.4-.9-1.9-.6-3.5-1.4-4.9-2.4-1.4-1-2.5-2.1-3.5-3.4-1-1.3-1.7-2.6-2.2-3.9l8.8-3.8c.9,1.9,2,3.3,3.4,4.2,1.4.9,3,1.4,4.8,1.4s3.2-.3,4.3-1,1.6-1.4,1.6-2.3-.4-1.8-1.3-2.4c-.9-.6-2.4-1.2-4.5-1.7l-5.2-1.1c-1.2-.2-2.3-.6-3.6-1.2-1.2-.5-2.3-1.2-3.3-2.1-1-.9-1.8-1.9-2.5-3.1-.7-1.2-1-2.6-1-4.2s.4-3.4,1.2-4.8c.8-1.4,1.8-2.6,3.2-3.6s2.9-1.7,4.8-2.3c1.8-.5,3.8-.8,5.9-.8,3.5,0,6.6.7,9.4,2.1,2.8,1.4,4.8,3.6,6.1,6.6l-8.5,3.5c-.7-1.5-1.7-2.5-3.1-3.2-1.4-.6-2.7-1-4.1-1s-2.6.3-3.7.9c-1.1.6-1.6,1.3-1.6,2.2s.4,1.5,1.3,2c.9.5,2.1,1,3.6,1.4l5.6,1.4c3.8.9,6.5,2.3,8.4,4.3,1.8,2,2.7,4.3,2.7,7s-.4,3.1-1.1,4.6c-.8,1.5-1.8,2.7-3.2,3.9-1.4,1.1-3,2-5,2.7-1.9.6-4.1,1-6.4,1Z"/>
      <path class="st0" d="M413,475.8c-.9,0-1.7-.2-2.4-.5s-1.5-.8-2-1.4c-.6-.6-1-1.2-1.4-2-.3-.8-.5-1.6-.5-2.5s.2-1.7.5-2.5c.3-.8.8-1.4,1.4-2,.6-.6,1.3-1,2-1.4s1.6-.5,2.4-.5c1.8,0,3.3.6,4.5,1.8,1.2,1.2,1.9,2.7,1.9,4.5s-.6,3.2-1.9,4.5c-1.3,1.2-2.8,1.8-4.5,1.8ZM408.1,517.5v-36.8h9.8v36.8h-9.8Z"/>
      <path class="st0" d="M453.6,480.7v4h-.6c-1.2-1.6-2.7-2.9-4.5-3.8-1.9-.9-4.1-1.4-6.6-1.4s-4.3.4-6.4,1.3c-2.1.9-3.9,2.2-5.5,3.8-1.6,1.7-2.9,3.7-3.9,6-1,2.4-1.5,5-1.5,7.8s.5,5.5,1.5,7.8c1,2.3,2.3,4.3,3.9,6s3.4,2.9,5.5,3.8c.9.4,1.8.7,2.8.9,1.8,0,3.6,0,5.4-.1.7,0,1.3,0,1.9.2,1.1-.2,2.1-.6,3-1,1.9-.9,3.4-2.2,4.5-3.8h.6v2.6c0,3.5-.9,6.3-2.7,8.3-1.2,1.3-2.7,2.2-4.5,2.7-.7.6-1.7,1-2.9,1.1-5.1.4-11-.5-15.9.8,1,1.3,2.2,2.4,3.7,3.5,1.5,1.1,3.3,2,5.3,2.6,2,.7,4.3,1,6.9,1s5.5-.5,7.9-1.4c2.4-.9,4.4-2.3,6.1-4,1.7-1.7,3-3.8,4-6.3,1-2.5,1.4-5.3,1.4-8.4v-34.1h-9.4ZM452.7,502.9c-.6,1.3-1.3,2.3-2.2,3.2-.9.9-1.9,1.5-3.1,2s-2.4.7-3.6.7-2.4-.2-3.5-.7c-1.2-.4-2.2-1.1-3.1-2-.9-.9-1.6-1.9-2.2-3.2-.6-1.3-.8-2.7-.8-4.3s.3-3.1.8-4.3c.5-1.3,1.3-2.3,2.2-3.2.9-.9,1.9-1.5,3.1-2,1.2-.4,2.3-.7,3.5-.7s2.4.2,3.6.7,2.2,1.1,3.1,2c.9.9,1.6,1.9,2.2,3.2.6,1.3.8,2.7.8,4.3s-.3,3.1-.8,4.3Z"/>
      <path class="st0" d="M480.6,485.5h.6c1.2-1.9,2.7-3.3,4.7-4.4,2-1.1,4.2-1.6,6.7-1.6s4.3.4,6.1,1.1c1.8.8,3.2,1.8,4.3,3.2,1.1,1.4,2,3,2.6,5,.6,1.9.9,4.1.9,6.4v22.3h-9.8v-21.1c0-2.7-.6-4.6-1.8-5.9-1.2-1.3-2.9-1.9-5.1-1.9s-2.5.3-3.6.9-1.9,1.4-2.6,2.3c-.7,1-1.3,2.1-1.7,3.5-.4,1.3-.6,2.7-.6,4.2v18h-9.8v-36.8h9.2v4.8Z"/>
    </g>
  </g>
</svg>