<svg width="184" height="48" viewBox="0 0 184 48" fill="none" xmlns="http://www.w3.org/2000/svg">
<path d="M99.9917 24.3548V29.336C99.9917 29.521 99.8404 29.681 99.6454 29.681H95.7129C92.5366 29.6298 91.2617 28.1648 91.2129 24.9798C91.2616 21.8935 92.3992 20.3535 95.7317 20.3073V20.3143H104.02V16.9043H95.7317C89.8267 16.9343 87.3941 19.4455 87.2766 24.783L87.2717 25.2018L87.2766 25.2088C87.4029 30.3888 89.8304 32.9325 95.5654 33.0175V33.0215H101.634C103.035 33.0215 104.04 31.8515 104.04 30.6178V24.354L99.9917 24.3548ZM132.486 33.0133V26.377H142.572V23.0845H132.486V18.112C132.486 17.922 132.639 17.7645 132.833 17.7645H142.806V14.3558H130.844C129.444 14.3558 128.437 15.5233 128.437 16.7595V33.0133H132.486ZM74.6415 29.622C74.444 29.622 74.294 29.4633 74.294 29.2758V26.3958H84.3765V23.1058H74.294V20.652C74.294 20.4645 74.444 20.3045 74.6415 20.3045H84.6153V16.8945H72.6528C71.2503 16.8945 70.2428 18.067 70.2428 19.3008V30.6258C70.2428 31.8633 71.2503 33.0333 72.6528 33.0333H84.6153V29.622H74.6415ZM63.6408 13.9728C61.747 13.9728 60.5383 14.9828 59.642 17.014L54.3695 29.159L49.0933 17.014C48.1958 14.9828 46.987 13.9728 45.092 13.9728C43.3195 13.9728 41.4883 15.2415 41.4883 17.9978V33.034H45.5295V18.409L50.837 30.4515C51.5508 32.134 52.697 33.1903 54.3658 33.1928H54.3698C56.0373 33.1898 57.186 32.134 57.8985 30.4515L63.2048 18.409V33.034H67.246V17.9978C67.246 15.2415 65.412 13.9728 63.6408 13.9728ZM113.249 26.396L115.738 20.5373C115.816 20.3535 115.959 20.3048 116.067 20.3048H116.069C116.176 20.3048 116.321 20.3536 116.397 20.5373L118.89 26.396H113.249ZM119.393 18.696C118.714 17.226 117.365 16.5098 116.069 16.5098H116.067C114.77 16.5098 113.421 17.226 112.747 18.696L106.133 33.0335H110.436L111.877 29.626H120.261L121.703 33.0335H126.006L119.393 18.696ZM179.032 16.8949V27.6811L172.083 18.1999C171.497 17.4624 170.845 16.8949 169.503 16.8949C168.272 16.8949 166.751 17.8686 166.751 19.7174V33.0436H170.798V22.2599L177.716 31.7724C178.318 32.5924 178.941 33.0436 180.326 33.0436C181.558 33.0436 183.078 32.1599 183.078 30.2199V16.8949H179.032ZM154.78 29.8496C150.648 29.8496 149.459 28.3321 149.459 24.9534V24.9359C149.459 21.6571 150.593 20.0459 154.78 20.0459C158.973 20.0459 160.104 21.6571 160.104 24.9359V24.9534C160.104 28.3321 158.913 29.8496 154.78 29.8496ZM164.044 24.9359C164.043 19.2859 161.788 16.6509 154.78 16.6509C147.778 16.6509 145.522 19.2859 145.518 24.9359V24.9472C145.518 30.5097 147.837 33.1922 154.78 33.1922C161.727 33.1922 164.044 30.5097 164.044 24.9472V24.9359Z" fill="black"/>
<path d="M14.0863 21.35C12.9688 21.35 12.0612 20.4438 12.0612 19.3275C12.0612 18.2088 12.9688 17.3025 14.0863 17.3025C15.2038 17.3025 16.1088 18.2088 16.1088 19.3275C16.1088 20.4438 15.2038 21.35 14.0863 21.35ZM17.19 8C8.24625 8 1 15.2475 1 24.19C1 31.95 6.46125 38.435 13.7475 40.0137V25.485L13.7485 25.484C13.7648 24.7827 14.3235 24.2178 15.0185 24.1915L15.6923 24.1905H17.0635C17.1585 24.1905 17.236 24.1155 17.241 24.0217L17.242 8.0029M28.3468 33.022C27.2305 33.022 26.323 32.1158 26.323 30.997C26.323 29.882 27.2305 28.9758 28.3468 28.9758C29.463 28.9758 30.3705 29.882 30.3705 30.997C30.3705 32.1158 29.463 33.022 28.3468 33.022ZM23.603 33.022C22.4868 33.022 21.5805 32.1158 21.5805 30.997C21.5805 29.882 22.4868 28.9758 23.603 28.9758C24.7205 28.9758 25.6268 29.882 25.6268 30.997C25.6268 32.1158 24.7205 33.022 23.603 33.022ZM18.8568 33.022C17.7405 33.022 16.8317 32.1158 16.8317 30.997C16.8317 29.882 17.7405 28.9758 18.8568 28.9758C19.9755 28.9758 20.8818 29.882 20.8818 30.997C20.8818 32.1158 19.9755 33.022 18.8568 33.022ZM19.188 8.12202V24.1895V24.8145V24.8258L19.184 24.8298C19.178 25.5523 18.589 26.1361 17.864 26.1361H17.2415H15.8715C15.7715 26.1361 15.6915 26.2161 15.6915 26.3148V40.3123C16.1852 40.3573 16.6827 40.3823 17.189 40.3823C26.1315 40.3823 33.379 33.1323 33.379 24.1898C33.379 15.9261 27.1868 9.10702 19.188 8.12202Z" fill="black"/>
</svg>
