<svg width="129" height="48" viewBox="0 0 129 48" fill="none" xmlns="http://www.w3.org/2000/svg">
<path fill-rule="evenodd" clip-rule="evenodd" d="M11.4666 8C9.07323 8 6.23558 10.2933 3.89494 14.1489C1.45536 18.1419 0 23.0852 0 27.378C0 33.6624 3.53847 40 11.4673 40C19.3866 40 22.9346 33.6624 22.9346 27.378C22.9346 23.0852 21.4799 18.1419 19.0521 14.1489C16.6895 10.2933 13.8521 8 11.4666 8ZM73.387 17.4287H81.4141V38.2863H90.0145V17.4287H98.0383V9.71339H73.387V17.4277V17.4287ZM116.386 17.4287H129V9.71339H116.386C104.797 9.71339 98.6084 15.4561 98.6084 23.9989C98.6084 32.5417 104.797 38.2863 116.386 38.2863H129V30.5713H116.386C111.023 30.5713 107.497 28.6606 107.497 23.9998C107.497 19.339 111.023 17.4287 116.386 17.4287ZM55.8945 9.71339L51.3108 26.7673L46.7272 9.71339H31.5347V38.2863H40.1319V15.0459L46.3799 38.2863H56.2418L62.4931 15.0319V38.2863H71.0935V9.71339H55.8945Z" fill="black"/>
</svg>
