<svg width="93" height="48" viewBox="0 0 93 48" fill="none" xmlns="http://www.w3.org/2000/svg">
<path d="M0 10.0087L12.7504 10.0032C16.6547 10.3616 21.3096 12.4676 21.7538 16.8851C22.0711 20.0579 20.846 22.7974 18.0564 24.356C17.2066 24.8311 16.2795 24.9978 15.4379 25.459L23.9778 37.7226H17.019L8.80472 25.8146C8.74677 25.7757 8.64744 25.9452 8.61433 25.9452H5.92684V37.7226C4.14713 37.8226 2.23498 37.5892 0.471829 37.7142C0.193146 37.7337 0.132443 37.7365 0.00275923 38.0004V10.0087H0ZM5.92408 25.1117H11.0894C12.0661 25.1117 13.9176 23.9643 14.5384 23.1752C16.9665 20.0857 14.5219 15.4126 10.6782 15.4126H5.92408V25.1117Z" fill="black"/>
<path d="M61.655 10.0083L67.8577 35.9218L73.7046 10.0972L74.6675 10.0166L80.3957 36.0607L86.524 10.0083H92.9999L86.5322 37.661L79.9184 37.7138L74.2592 11.8087L68.3958 37.7305L61.6522 37.586L55.248 10.0083H61.655Z" fill="black"/>
<path d="M25.2139 37.7222L35.5611 10.0222L43.8691 10L54.2852 37.7222H47.5334L44.5782 29.815L34.7167 29.8901L31.8251 37.7222H25.2112H25.2139ZM34.9954 29.1316H44.363L39.6116 16.7986L34.9954 29.1316Z" fill="black"/>
</svg>
