<svg width="105" height="48" viewBox="0 0 105 48" fill="none" xmlns="http://www.w3.org/2000/svg">
<path d="M21.1129 3L23.1294 3.30293C25.5394 3.73353 27.9704 4.62027 30.0382 5.92368C30.9735 6.51329 31.8644 7.35244 32.7635 7.91536C33.3403 8.27632 35.5074 8.23918 36.3072 8.31114C36.4392 8.32275 36.5699 8.35292 36.6879 8.41095C36.6295 8.97503 36.7754 9.56464 36.7941 10.0951C36.8233 10.9377 36.6645 11.9231 36.8093 12.7738C36.8875 13.2346 37.5391 14.256 37.7668 14.7806C39.9058 19.7006 40.269 25.1766 38.5409 30.2927C38.305 30.9926 37.3908 32.6802 37.3207 33.1711C37.0312 35.1953 37.5087 37.8555 37.3172 39.9575C37.2495 40.7049 36.793 40.6446 36.1297 40.6921C34.3748 40.8198 32.4902 40.5819 30.7213 40.713C26.1267 43.6692 20.8222 44.7208 15.4371 43.5067C13.1368 42.9879 11.139 41.8412 8.97775 40.9579C6.94725 40.9243 4.49757 41.3665 2.50093 41.1332C2.37366 41.1181 2.27558 41.1227 2.19851 40.9986V33.5124C2.19851 31.7017 0.0208898 28.3637 0.196034 26.1886L0.0103812 24.1529C0.0349014 23.576 -0.0223123 22.9876 0.0103812 22.4119C0.169178 19.6449 0.999361 16.915 2.01403 14.35C1.93346 12.9015 1.96616 11.453 1.9393 10.0034C1.93229 9.625 1.6906 8.917 1.9825 8.57345C2.33279 8.15909 5.72124 8.46318 6.40314 8.18115C9.86749 5.15765 14.2204 3.26463 18.836 3H21.1129ZM31.3577 8.13588C31.3798 7.96178 31.2094 7.84804 31.0961 7.74358C30.74 7.41628 30.1025 6.97871 29.6868 6.70712C23.0348 2.36396 14.0464 3.09169 7.97827 8.09294C7.91638 8.27516 8.27251 8.26007 8.37292 8.26007C13.2571 8.30534 18.1658 8.26355 22.9928 8.21829C25.7822 8.19159 28.5764 8.29721 31.3577 8.13472V8.13588ZM3.51326 9.52866L4.44853 10.1241L4.95878 9.70276L4.87004 9.52866H3.51326ZM22.514 16.4926C22.6367 16.5123 22.7312 16.4752 22.841 16.4264C23.3664 16.1885 24.3075 15.4329 24.9065 15.0859C27.4204 13.6269 30.0511 12.4628 32.4891 10.8727C32.8207 10.6557 33.1476 10.4293 33.4582 10.1833C33.2621 10.0393 33.1838 9.73642 32.9398 9.65517C32.5031 9.51125 30.8486 9.61687 30.2601 9.61339C29.8806 9.61107 29.5116 9.61687 29.1287 9.61339C21.6617 9.54259 14.1819 9.50081 6.70438 9.52518C6.21632 9.59018 5.76678 10.5013 5.35811 10.8042C5.33009 10.9586 5.83334 11.2975 5.97228 11.3938C8.32855 13.028 11.3632 14.762 14.0219 15.8403C14.2963 15.9517 16.0069 16.597 16.1213 16.4937C15.3997 14.8108 15.8364 11.8546 17.3461 10.7032C18.1308 10.1043 19.7234 10.0893 20.591 10.528C22.2945 11.388 23.0803 14.7853 22.514 16.4937V16.4926ZM18.9026 11.0305C16.0723 11.4112 15.7488 16.8373 18.2032 17.6869C19.9336 18.2858 21.4141 17.3108 21.8427 15.6082C22.3202 13.7058 21.3021 10.7079 18.9026 11.0317V11.0305ZM35.6487 16.4496C35.7316 15.4236 35.6487 14.1945 35.6487 13.1418C35.6487 12.9572 34.6072 11.4286 34.418 11.4786L27.0666 16.4044C28.741 16.5274 30.4247 16.4369 32.1049 16.4891C32.8254 16.5111 33.6509 16.6458 34.3736 16.6713C34.7963 16.6864 35.226 16.6527 35.6487 16.6667C35.5821 16.5785 35.6428 16.5146 35.6487 16.4496ZM12.7936 16.2326L4.7381 12.0542C4.77897 12.1773 4.90974 12.2713 5.00782 12.3502C6.82232 13.7987 9.077 14.9837 10.9791 16.3382C11.2791 16.4519 11.8922 16.4299 12.2238 16.4044C12.3417 16.3951 12.7527 16.3614 12.7936 16.2326ZM3.25055 14.0981C3.08591 14.9048 3.37315 16.2337 3.25055 17.1019L9.46699 16.4914C9.44247 16.38 9.3222 16.3069 9.23346 16.2454C8.59944 15.8113 7.76342 15.4619 7.07569 14.9965C6.09605 14.3338 5.21099 13.5271 4.24069 12.8481C4.03753 12.8179 3.28791 13.9159 3.25055 14.0981ZM29.6062 13.447C29.3073 13.5201 28.9453 13.6443 28.6709 13.779C27.5839 14.3117 25.5499 15.405 24.6391 16.1246C24.534 16.207 24.3998 16.2233 24.4406 16.4044C24.6531 16.3939 24.8773 16.4299 25.0898 16.3974C25.6736 16.3069 28.0498 14.6553 28.6709 14.213C28.992 13.9844 29.347 13.7465 29.6062 13.447ZM37.1386 30.8556C37.3511 30.7256 37.469 30.4007 37.5507 30.179C37.8718 29.3096 38.1159 28.0666 38.2618 27.1427C38.8783 23.2139 38.5514 19.263 36.9191 15.6221L37.1386 30.8568V30.8556ZM23.8276 17.276C23.7249 17.1913 22.1474 17.5314 21.9384 17.6172C21.5928 17.7588 21.1351 18.3821 20.6785 18.6282C19.7223 19.1423 18.6188 19.0588 17.6649 18.5713C17.0134 18.2393 16.7728 17.7066 15.9508 17.5766C14.914 17.413 13.7569 17.4698 12.7072 17.4513C12.6558 17.6521 12.7469 17.5952 12.8169 17.6497C14.2578 18.7721 16.5008 18.1732 17.2609 19.9293C17.8821 21.365 17.9661 24.6984 17.8716 26.285C17.8027 27.4398 17.5505 28.1443 17.6112 29.3329C17.631 29.7228 17.5948 30.1186 17.6112 30.5074L18.3818 28.8802C19.456 27.2634 21.5554 26.8351 22.3424 28.9812C22.5794 29.6265 22.7826 30.2625 23.0313 30.9113C23.0792 31.0378 22.9484 31.1644 23.2135 31.1168C23.1644 30.2823 23.2812 29.377 23.2135 28.5506C23.1784 28.1304 23.0021 27.6604 22.9636 27.2321C22.7884 25.2671 22.9764 23.3671 23.043 21.4149C23.0733 20.5293 22.8608 18.7396 23.231 18.0328C23.4143 17.6822 23.726 17.6161 23.8276 17.2772V17.276ZM34.5102 17.4513C31.5702 17.1031 28.5822 17.3514 25.6211 17.2748L25.2837 17.3747L24.4418 18.0594C25.2685 18.0095 26.1092 18.0188 26.9359 17.9724C29.1835 17.8459 31.4289 17.7658 33.6777 17.6242L34.5102 17.4524V17.4513ZM12.3569 18.4065L11.1706 17.5406C9.22646 17.6056 7.29754 17.7426 5.35227 17.7113L12.3569 18.4065ZM2.11094 30.2463L1.80502 17.9724C0.591859 21.7503 0.475097 26.2803 1.95915 30.0084C1.99651 30.1012 1.98484 30.2683 2.11094 30.2474V30.2463ZM35.6487 18.3206L30.1713 18.4042C28.5752 18.7663 26.0251 18.2602 24.5504 18.7361C23.7015 19.01 23.9584 20.2136 23.9175 20.8926C23.726 24.1227 23.51 28.5831 24.8341 31.5509C25.8301 33.7839 27.1729 36.5834 28.5927 38.5217C28.7468 38.7318 29.1088 39.564 29.3131 39.6336C30.4387 39.8634 31.0237 39.3226 31.7955 38.6482C32.6561 37.895 35.6008 34.7368 35.8028 33.7526C35.9091 30.9473 35.7701 28.1235 35.7316 25.3321C35.7001 22.9911 35.7841 20.6512 35.6475 18.3206H35.6487ZM3.0754 18.6688V31.5961C3.0754 32.968 6.82932 37.2148 7.93273 38.2571C8.262 38.5681 9.61761 39.7892 9.9282 39.9296C10.4665 40.1733 11.1671 39.9772 11.745 39.954C12.6266 38.5751 13.6179 37.6744 14.1317 36.0588C15.6122 31.3965 17.2889 26.0888 16.7109 21.1746C16.523 19.5718 15.9543 19.3013 14.4142 19.1934C12.9734 19.0924 11.3994 19.1714 9.94572 19.1087L3.0754 18.6699V18.6688ZM17.9615 39.9087H19.9313L20.0422 39.7822C19.5191 38.4486 21.2402 38.3349 21.5963 37.5595C21.9524 36.7842 21.5905 35.713 21.5484 34.9075C21.4714 33.4323 21.5052 31.9432 21.2787 30.4749C21.2005 29.9654 21.065 29.4187 20.5454 29.1994C19.6125 29.6567 19.7024 30.88 19.7141 31.7691C19.7386 33.6493 19.6942 35.5342 19.7094 37.4319C19.7117 37.6675 19.8308 37.8509 19.7853 38.1027C19.6487 38.849 18.6352 39.3574 18.0747 39.7149C17.9872 39.7706 17.9194 39.7056 17.9615 39.9099V39.9087ZM17.8739 38.1677C18.5091 37.924 18.6901 37.2671 18.7473 36.6426C18.8886 35.1048 18.8465 32.9877 18.8407 31.4255C18.8384 30.9694 18.8617 30.519 18.7485 30.0722C18.6224 30.0954 18.5721 30.2289 18.5313 30.3333C18.3643 30.7546 17.9078 32.3285 17.8786 32.7394C17.8307 33.4241 18.0946 34.3295 18.1343 34.991C18.1985 36.0519 18.1716 37.1464 17.8739 38.1666V38.1677ZM22.0774 38.4289C23.5719 38.2339 23.2041 36.1807 23.2111 35.0746C23.2146 34.4188 23.315 33.6598 23.21 32.9947C23.1329 32.5072 22.5117 31.7551 22.4265 31.205C22.2583 31.2224 22.256 31.5543 22.249 31.6797C22.1252 33.6075 22.5678 35.8406 22.3424 37.6919C22.305 37.9994 22.1194 38.1468 22.0785 38.4289H22.0774ZM24.0016 31.2909C23.6396 31.2317 23.928 31.8166 23.9222 32.0302C23.914 32.3355 23.7436 32.6419 23.8475 32.968C24.6076 34.3271 25.1155 35.9613 25.8827 37.2996C26.2084 37.8694 27.0666 38.697 27.7684 38.6889C27.5582 38.177 27.1554 37.7824 26.8763 37.2694C26.4046 36.4024 26.0111 35.3729 25.5674 34.4792C25.0408 33.4183 24.4255 32.3958 24.0028 31.2897L24.0016 31.2909ZM16.7343 31.6391L16.5393 31.7505L14.4598 37.9066C14.4726 37.9228 14.7143 37.7801 14.7657 37.7336C15.3869 37.1672 16.6607 33.7561 16.802 32.881C16.8721 32.4446 16.7903 32.0639 16.7355 31.6391H16.7343ZM17.2609 36.0345C17.3099 35.5516 17.2247 35.0026 17.2609 34.5117C17.1079 34.5349 17.1079 34.6846 17.0612 34.7926C16.5767 35.9184 16.0512 38.632 14.8591 39.2193C14.6921 39.3017 14.4995 39.2831 14.378 39.3504C14.1001 39.5025 13.8935 39.7601 13.5829 39.8669C13.549 40.0561 13.6716 39.9992 13.8047 40.0004C14.4119 40.005 15.1288 39.8159 15.7722 39.9087C15.7208 38.9256 16.551 38.2211 16.8919 37.4087C17.0274 37.0848 17.227 36.3722 17.2621 36.0356L17.2609 36.0345ZM3.16297 34.7728V40.0399C3.24004 40.164 3.33812 40.1606 3.46539 40.1745C4.89573 40.3416 6.52807 39.9621 7.97943 40.0816C6.1953 38.4637 4.57814 36.7204 3.16297 34.7728ZM23.9152 34.9469V36.9061C23.9152 37.0419 23.7552 38.0609 23.719 38.278C23.6618 38.6204 23.2473 39.1879 22.9297 39.3214C22.5316 39.4885 21.9197 39.1937 21.8146 39.8217L27.8571 39.6058C27.5874 39.4781 27.3083 39.4305 27.0409 39.2843C26.4513 38.9616 25.4343 37.7371 25.0712 37.151L23.9164 34.9481L23.9152 34.9469ZM32.147 39.6476L35.9604 39.4793L35.8227 35.7304C34.7368 37.1173 33.5808 38.2884 32.2579 39.4479C32.1983 39.5002 32.0898 39.4433 32.1458 39.6464L32.147 39.6476ZM28.7305 40.7804L12.0054 40.9974C16.5311 43.6298 22.0493 43.5961 26.8261 41.6276L28.7305 40.7804Z" fill="black"/>
<path d="M57.4517 40.2569H55.9198L54.3435 37.2102H52.3737V40.2569H50.885V31.7703L51.0158 31.6403H55.0441C55.1072 31.6403 55.6151 31.7935 55.726 31.8329C57.6958 32.5363 57.9176 35.4704 56.3974 36.7274C56.2596 36.8411 55.9677 36.8539 55.9642 37.0767L57.4529 40.2581L57.4517 40.2569ZM52.3737 35.9045H54.869C54.9028 35.9045 55.2823 35.7269 55.3465 35.6828C56.0669 35.1942 56.123 33.8629 55.4831 33.2919C55.4317 33.2454 55.0698 33.0319 55.0441 33.0319H52.3737V35.9045Z" fill="black"/>
<path d="M72.2316 19.913C75.5628 19.5532 77.2582 21.9488 76.9768 25.0652C76.5191 30.1326 69.2051 30.114 68.7485 25.0652C68.5302 22.644 69.5635 20.2009 72.2316 19.913ZM72.583 21.2188C69.302 21.4532 69.2565 27.9981 73.4249 27.4538C76.2505 27.0847 76.4257 20.9437 72.583 21.2188Z" fill="black"/>
<path d="M61.4612 31.4905C65.1661 31.0994 66.9094 34.5047 65.897 37.729C64.796 41.2342 59.537 41.3851 58.2234 37.9658C57.1971 35.2963 58.2923 31.8248 61.4612 31.4905ZM61.3713 32.881C58.7033 33.2617 58.5048 39.0266 61.9855 39.1021C64.3289 39.1531 64.9501 36.7274 64.5181 34.8436C64.1526 33.2535 62.9476 32.657 61.3713 32.8821V32.881Z" fill="black"/>
<path d="M97.6436 28.6794H96.0674L94.6662 25.6326H92.5645V28.6794H91.2077L91.0722 28.3787C91.1365 25.6106 90.9613 22.8146 91.1645 20.0615H95.3236C95.4579 20.0615 96.079 20.2913 96.2413 20.3679C98.092 21.2431 97.9986 24.537 96.1619 25.4237L97.6436 28.6794ZM92.5645 24.3269H95.0597C95.675 24.3269 96.1549 23.3601 96.1444 22.8123C96.1316 22.1391 95.6178 21.3673 94.8845 21.3673H92.5645V24.3269Z" fill="black"/>
<path d="M52.8769 8.332C56.1661 7.91765 58.0541 10.1624 57.8007 13.3135C57.5812 16.041 55.4059 17.6718 52.7017 17.1669C48.3628 16.3556 48.4866 8.88447 52.8769 8.332ZM51.8785 15.2425C52.5604 15.9111 53.7666 16.0457 54.647 15.7497C57.301 14.8583 56.8164 8.58502 52.8103 9.74568C50.7249 10.3492 50.5334 13.924 51.8785 15.2425Z" fill="black"/>
<path d="M42.5657 28.6794V20.0615H46.2869C50.4775 20.0615 50.9282 28.6794 45.9366 28.6794H42.5657ZM44.0544 27.2866H46.2869C46.3628 27.2866 46.8987 27.0301 47.0085 26.9593C48.468 26.0238 48.4435 22.2482 46.6792 21.5866C46.4702 21.5089 45.8642 21.3673 45.6739 21.3673H44.1852L44.0544 21.4972V27.2866Z" fill="black"/>
<path d="M50.1844 35.7303C50.3957 38.177 48.9899 40.3497 46.3802 40.4345C40.1404 40.6376 40.9146 29.9538 47.4533 31.6124C48.5147 31.8816 49.8703 33.0678 49.924 34.2064C49.9333 34.3979 49.917 34.3143 49.792 34.3352C49.3974 34.4014 48.9724 34.4026 48.5789 34.5012C48.099 33.7445 47.7137 32.9866 46.7165 32.8659C43.9317 32.5293 43.1284 35.2301 43.8769 37.4295C44.7129 39.8878 48.5065 39.5524 48.6081 36.8608H47.1193V35.7292H50.1844V35.7303Z" fill="black"/>
<path d="M47.5712 10.9934C47.2221 9.86872 46.0335 9.37776 44.9336 9.74801C44.0543 10.044 43.6328 10.9748 44.5763 11.4913C46.1864 12.3722 49.2176 11.9857 49.1872 14.6065C49.1464 18.1952 42.4874 18.0676 42.2153 14.4916L43.648 14.3256C43.78 14.3709 43.8991 14.834 44.017 15.0081C44.6382 15.9262 46.0475 16.1153 47.0038 15.6383C47.7405 15.2704 47.9554 14.3314 47.1812 13.8648C45.9424 13.1185 43.1506 13.2218 42.6579 11.5714C41.628 8.1173 47.1159 7.16208 48.7097 9.81997C48.8778 10.0997 48.9899 10.4119 49.1253 10.7067C49.1125 10.8553 47.7172 11.0874 47.5701 10.9946L47.5712 10.9934Z" fill="black"/>
<path d="M59.9037 22.4119L58.4652 22.6615C58.1289 21.8583 57.4493 21.2142 56.5292 21.1909C55.3476 21.1619 54.1157 22.3609 55.4106 23.0933C56.7873 23.872 59.7297 23.6527 59.9819 25.7732C60.4536 29.7391 53.3253 29.861 53.0742 26.068L54.5618 25.8939C54.8128 27.1625 56.0236 27.6163 57.2251 27.4527C58.3134 27.3041 59.1073 26.0726 57.8942 25.4099C56.3249 24.5534 53.3276 24.876 53.3369 22.3678C53.3498 18.9938 59.551 19.1366 59.9037 22.4108V22.4119Z" fill="black"/>
<path d="M75.3583 17.1019L74.7114 15.2379L71.3428 15.1984C71.0929 15.282 70.9225 16.8059 70.6387 17.023C70.4601 17.1599 69.2037 17.1611 69.1897 16.9731L72.0282 8.47827L74.0809 8.49336L76.7162 17.1019H75.3594H75.3583ZM71.7246 13.8811H74.2642L72.9074 9.9639L71.7246 13.8811Z" fill="black"/>
<path d="M68.3072 22.6696L66.913 23.0201C66.2311 20.6558 62.8485 20.5456 62.0685 22.9528C61.3236 25.2555 62.2775 27.8403 65.0915 27.4375C66.0793 27.2959 66.5721 26.5531 66.9644 25.7255L68.3083 26.0714C67.7794 28.4032 65.2176 29.2934 63.0563 28.6353C60.2692 27.7869 59.6912 23.9881 61.006 21.7213C62.6477 18.8916 67.6019 19.3652 68.3072 22.6684V22.6696Z" fill="black"/>
<path d="M64.6337 11.4438C64.0335 9.14799 60.7104 8.953 59.8277 11.1501C59.4658 12.0519 59.4529 13.3879 59.7915 14.2978C60.6182 16.5239 63.9611 16.4264 64.5963 14.1353L65.9461 14.4464C66.1703 14.6054 65.7371 15.2693 65.632 15.441C64.1316 17.9109 60.0963 17.8482 58.6624 15.3319C57.4528 13.208 57.9385 9.61806 60.4302 8.61641C62.0567 7.96181 64.0627 8.23572 65.2467 9.57047C65.4358 9.78403 66.2438 10.846 65.9449 11.0526L64.6325 11.4438H64.6337Z" fill="black"/>
<path d="M68.3094 31.6391V37.3402C68.3094 37.5549 68.6036 38.1051 68.7495 38.2954C69.7841 39.6464 72.1427 39.1462 72.3377 37.4273C72.5303 35.7258 72.1333 33.6273 72.333 31.9385C72.3482 31.812 72.3435 31.7145 72.4684 31.6379H73.8252V37.6873C73.8252 37.7673 73.552 38.5287 73.4913 38.661C72.3995 40.9951 68.4553 41.0288 67.2562 38.7353C67.2001 38.6285 66.9082 37.9089 66.9082 37.8625V31.6391H68.3094Z" fill="black"/>
<path d="M90.2001 20.0616V21.3673H86.1286L85.9978 21.4973V23.5424H89.4131V24.8481H85.9978V27.2855H90.0693C90.2842 27.6 90.2819 28.3742 90.0693 28.6783H84.5967V20.0604H90.2013L90.2001 20.0616Z" fill="black"/>
<path d="M76.4524 40.2569H75.0513V31.639H79.1228C79.2606 31.639 80.0242 31.8921 80.1888 31.9721C81.9192 32.8113 81.9344 35.8325 80.3336 36.848C80.197 36.9351 79.5011 37.2102 79.3843 37.2102H76.582L76.4513 37.3402V40.2557L76.4524 40.2569ZM76.4524 35.9044H79.0352C79.6062 35.9044 80.0172 35.0583 80.0464 34.5581C80.0767 34.0439 79.7218 33.0318 79.1228 33.0318H76.4524V35.9044Z" fill="black"/>
<path d="M78.1164 20.0615L80.3501 27.2007L82.7134 20.0615H84.1589L81.3904 28.6852L79.298 28.5935L76.6277 20.0615H78.1164Z" fill="black"/>
<path d="M99.3509 20.0616L101.322 23.4565L103.335 20.0616H104.999C105.013 20.2194 104.905 20.3378 104.838 20.4667C104.497 21.1166 102.109 24.8829 102.109 25.1534V28.6794H100.708V25.1534L97.7302 20.0604H99.3497L99.3509 20.0616Z" fill="black"/>
<path d="M78.9046 8.48407V15.7091H82.7577V17.1019H77.5034V8.48407H78.9046Z" fill="black"/>
<path d="M52.111 20.0615V28.6794H50.7531L50.6223 28.5482V20.0615H52.111Z" fill="black"/>
<path d="M68.4846 8.48407V16.9708L68.3398 17.088C67.9206 17.0648 67.3298 17.2331 66.9958 16.9708V8.48407H68.4846Z" fill="black"/>
<path d="M19.6883 11.467C20.0911 11.8616 20.021 13.7999 19.8657 14.3373C19.7256 14.8189 19.0939 14.8967 18.7763 14.5497C18.2497 13.9728 18.2719 11.8303 18.8394 11.3149C19.0531 11.1211 19.519 11.301 19.6871 11.4658L19.6883 11.467Z" fill="black"/>
<path d="M21.1057 15.5281C19.6777 15.7718 19.8248 12.2283 20.7181 12.2249C21.6113 12.2214 21.3731 14.9826 21.1057 15.5281Z" fill="black"/>
<path d="M17.2607 12.5754C17.904 12.5545 18.1971 12.7959 18.2882 13.4262C18.3559 13.8904 18.4598 15.4701 17.8994 15.614C16.6348 15.1578 17.1731 13.5921 17.2607 12.5766V12.5754Z" fill="black"/>
<path d="M17.2678 16.4903C17.1428 16.4009 17.0261 15.6581 17.3051 15.5351C17.5282 15.4817 17.59 16.0017 17.7372 16.1479C18.4821 16.8884 19.575 16.4636 20.3176 15.9587L20.2371 15.448C20.4659 15.2217 21.344 16.4067 20.8454 16.6272C20.4344 16.5541 20.3351 16.8512 19.958 16.9557C19.2749 17.1449 18.4938 17.1449 17.8481 16.8222C17.6706 16.7329 17.6426 16.5031 17.527 16.4497C17.4499 16.4148 17.3028 16.5158 17.2678 16.4903Z" fill="black"/>
</svg>
