<?xml version="1.0" encoding="UTF-8"?>
<svg id="Layer_1" xmlns="http://www.w3.org/2000/svg" version="1.1" viewBox="0 0 1520.1 800">
  <!-- Generator: Adobe Illustrator 29.0.1, SVG Export Plug-In . SVG Version: 2.1.0 Build 192)  -->
  <defs>
    <style>
      .st0 {
        fill: #fff;
      }
    </style>
  </defs>
  <g>
    <path d="M94.8,67.5L0,160.3v249.3l82.4,84.1h37.8c-.9,2.5-2.1,6.4.5,10.3,2.9,4.2,7.8,4.2,9.7,4.2s5.3-.3,10-.9h0s2,1.8-4,3.7c-5,1.7-9.3,4.6-10.7,9.6,0,.4-.1.7-.2,1.1H0v127.4s94.7,93.1,94.7,93.1h249.3l94.8-93v-238.8l-82.4-84h-69.9s-.1,0-.1,0c-3.1-1.8-6.2-3.8-9.1-5.7l-1.1-.7h-.2c-1.6-1.1-3.2-2.3-5-3.8-1.6-1.2-2.9-2.5-3.8-3.6l-.3-.3c-1.8-1.9-3.5-3.8-4.7-5.4,10.9,3.1,22.8,3.9,28.5,4.1h.7c.4,0,.7,0,1.1,0h.5c1.4.1,2.4.4,3.1.6.7.3,1.4.6,2,.9l2.9,1.1c.7.2,1.4.2,2.2.2,4.3,0,8.3-2.6,10.1-6.6.6-1.4,1.5-4.1.8-7.8h124.6c0,0,0-139.1,0-139.1l-94.8-92.9H94.8Z"/>
    <path class="st0" d="M427.5,165.3l-88-86.4H99.4L11.3,165.2v239.7l75.8,77.3h48.9c-5.5,5-7.2,10.1-8.1,12.6-1.9,5.5-3.9,7,13.3,4.6,5.4-.8,15.3-4.3,20-7.4,4.6-3.1,13.6-.6,12.8,6.2-4.2,10.4-15.1,16.8-25.4,18.1-23.8,3-13.5,11.9-13.5,11.9,2.6,1.8,4.5,3.5,5.8,5.1h-11.6s-117.9,0-117.9,0v111s88,86.5,88,86.5h240.2l88-86.4v-229.1l-75.8-77.2h-61.2c-4.9-3.3-11.5-6.9-17.4-10.8t0,0c-2.3-1.3-4.6-3-6.7-4.9-1.8-1.4-3.4-2.9-4.8-4.5-5.3-5.5-9.2-11.3-10.3-13.9-2-4.9-1.5-11,2.9-8.5,11.3,6.5,29.9,7.8,36.8,8,.8,0,6.3.6,7.7,1.1,1.4.6,3.5,1.6,3.5,1.6,2.8,1.2,7.9-2.7,2-9.8-1.5-2.4-3.8-5.2-6.5-8.1h129.9v-122.8"/>
    <path d="M103.9,90.5L22.6,170.1v229.9l69.2,70.6h65c11.1-4.9,13.4-4.5,16.5-10.7.5-1,.9-3.8,1-6.6.1-.8,1.5-9.2-2.5-7.1-6.9,3.5-21-5.7-31.5-.2-10.5,5.4-2.8-7.2-1.3-9.3,0,0,5.6-7.4,14.1-12.3.3-.2.6-.4.8-.5.8-.5,1.7-.9,2.5-1.3,6.4-3,24.8-15.2,28.1-19,2-2.2,5.5-7.3,5.6-10.1.6-2.4,1.1-6.3-1.3-7.8-3.5-2.3-6.3,2.2-11.8,4.7-5.5,2.4-9.6,3.4-14.5,3.6-4.7.2-9.2-1.6-12-1.2-2.8.5-4.5-1.7.7-6.9,2.3-2.3,3.4-3.4,4.5-4.2,12.2-7.9,23.2-7.9,29.4-21.9,0,0,4.8-12.5-4.5-7.2-5.1,2.9-7.8,7.2-22.3,7.2s-20.1,6.9-22.5,9.9c0,0-9.8,13.8-7.4-5.5,2.5-19.2,6.2-29,15.3-36.5,7.8-6.4,27.2-15.1,34.2-24.6,3.6-3.6,12.6-13.9,7.4-22.6-2.2-3.7-7.6,5.9-13.2,7.1-6.4,1.7-14.4,3.7-20.6,2.5-7.6-1.5-12.5,1.4-15.4,2.7s-8.2-2.8-1.7-10.3c8.8-10.1,30.2-23.2,44.5-31.1,2-.8,6.8-2.9,11.2-5.8,0,0,.2,0,.2,0,1.1-.5,2.7-1.5,3.6-2.7,3.1-2.6,5.3-5.6,4.6-8.6-.6-2.7-2-3.6-6.2-4.1-3.4-.3-8.9,3.6-13.6,3.2-7.2-.6-17.7,1.1-14.2-4.1,3.3-4.7,8.6-7.8,10.1-8.6,2.9-1.3,6.9-3.1,12.7-5.7,9.2-4.1,7.9-14.5,4.3-14.9-5.5-.6-20.4,4.2-9.9-7.8,0,0,5-5,10-8.3,4-2.3,7.2-3.2,11.1-4.6,2.4-.9,8.8-6.5-6.3-7.1,0,0-8.5.2-6.9-3.7,1.3-2.6,8.8-7.3,8.8-7.3,0,0,6-4.1,8.4-6.5,2.3-2.3,4-4,3.9-6.1,0-2.3-6.1-5.2-8.6-8.4-1.8-2.3-.3-3.1.7-3.4.6,0,1.2-.2,2-.2,6.2,0,7.9-6.1,11.5-22.1,1.1-4.8,1.1-5.8,2.7-5.8.2,0,.2,0,.3,0,0,0,1.5,8.1,3.7,17.2,1.9,5,3.9,7.1,7.6,7.1.7,0,1.4,0,1.9.2,1,.3,2.6,1.1.7,3.4-1.4,1.8-5.5,4.7-5.8,6.4-1.2,5,3.6,6.8,8.4,7.1,6.8.5,4,4.7-3.4,10.2-7.1,5.3,11.1,16.6,11.1,16.6,10.4,8.1,3,10.1.9,11.3-2.1,1.1-8,4.7-2.1,7,5.9,2.3,14,10.4,14,10.4,10.4,12-4.4,7.2-9.9,7.8-3.6.4-4.8,10.8,4.3,14.9,13.9,6.3,17,7.4,21.9,11,9.2,6.8,4.3,12.6-7.2,10.6,0,0-7.4-1.8-12.5-.8-3.2.6-5.4,1.3-7,2.1-.8,1.2-2.6,5.9,13.4,10.9,7.6,2.4,17.1,8.1,25.5,14.7h131.2c0-.1,0-106.5,0-106.5l-81.3-79.7H103.9ZM302.1,349.5c3.8,6.3,6,14.4,7.6,26.5,0,7.2-9.5,3.7-12.6,1.8-2.2-1.5-5-2.8-8.7-3.7-7-1.7-23.5-8.9-28-10.6-4.6-1.7-8,1.7-8.5,3h0c-1.2,2.2,1.3,6.6,1.3,6.6,6.5,14.7,18.5,13.9,31.6,23.4,18.1,12.9,8.4,15.6,4.7,13.7-3.7-2-9.7-.7-9.7-.7-14.6,4-19-2.1-27.5-4.3-8.5-2.3-1.5,8.3,1.6,11.8,3.3,3.8,21.7,16.1,28.1,19,14,6.5,21.2,17,25.5,30.4,4.1,12.7-.4,9.9-3.7,8.3-3.3-1.6-4.3-5-12.5-4.8-8.3.2-12.9-.4-18.8-5.1-1.6-1.2-2.8-2.6-3.9-3.7,0,0-.1,0-.2-.1-5.7-4.3-4.6,10-3.4,12.4,4.1,8.2,6.8,4.9,30.4,17.4,11.2,6,13.8,14,15,17.3,1.9,5.4,3.8,7-13.3,4.6-5.5-.7-15.3-4.2-20-7.4-4.5-3.1-13.6-.6-12.7,6.2,4.2,10.4,15.1,16.9,25.5,18.1,9.1,1.2,13.2,3.1,14.8,5.2,5,5.7-4.2,14-4.2,14-4.6,5.3.4,11.6,3.8,13.4,5.5,2.8,16.2,9.2,19.8,18.5,18.6,47.8.6,34.1-8.2,28.7-8.8-5.5-25.6-19.6-40.9-18.3-15.3,1.2-20.4,2-29.5-5.2-9.1-7.2-8.2,4.5-8.2,4.5v57.7c.5,12.9,2.9,25.3,13.2,35.7,8.4,8.6,14.8,7,26.7,21.5,5.5,6.7,23.3,13.8,35.2,14h22.9s81.3-79.7,81.3-79.7v-219.5l-69.1-70.4h-45,0ZM22.6,544.7v94.5s81.3,79.8,81.3,79.8h26.1c24.6-1.2,33.8-20.3,41.2-32,5.6-8.9,15.6-16.4,21.9-22.9,6.7-6.8,7.9-22.2,8.1-39v-35,.4s0-8.4,0-8.4h0v-5.6h0v-16.4c0-3.5-4-3.8-12.9,5.8-8.9,9.5-23.7,8.7-32.3,9.5-8.6.8-33.4,13.7-40.4,22.9-4.4,5.7-10.6,1-8.1-10.3h0c1.2-5.1,3.4-12,6.9-21,4.9-12.6,23.2-20.1,23.2-20.1,0,0,1.9-.8,3.5-2.4H22.6Z"/>
  </g>
  <g>
    <g>
      <path d="M517.2,67.9h86v182.2h191.8V67.9h86v456.2h-86v-192.4h-191.8v192.4h-86V67.9Z"/>
      <path d="M1365.3,450.9c-22.5,27.2-49.1,47.9-79.6,62.1-30.6,14.2-64.8,21.3-102.6,21.3s-65.5-6.2-94.6-18.5c-29.1-12.3-54.3-29.1-75.5-50.3-21.2-21.2-38-46.4-50.3-75.5-12.3-29.1-18.5-60.4-18.5-94s6.2-64.9,18.5-94c12.3-29.1,29.1-54.3,50.3-75.5,21.2-21.2,46.4-38,75.5-50.3,29.1-12.3,60.6-18.5,94.6-18.5s68.7,6.4,96.5,19.1c27.8,12.7,52.6,31.2,74.2,55.4l-60.5,58.6c-13.6-15.7-29.2-28.2-46.8-37.6-17.6-9.3-38.5-14-62.8-14s-41.2,3.7-59.9,11.2c-18.7,7.4-34.9,18-48.7,31.5-13.8,13.6-24.7,30.1-32.8,49.4-8.1,19.3-12.1,40.9-12.1,64.7s4,45.3,12.1,64.7c8.1,19.3,19,35.8,32.8,49.4,13.8,13.6,30,24.1,48.7,31.5,18.7,7.4,38.6,11.2,59.9,11.2s48.1-5.2,67.9-15.6c19.8-10.4,37.3-25.2,52.6-44.3l61.2,58Z"/>
      <path d="M1434.1,67.9h86v456.2h-86V67.9Z"/>
    </g>
    <g>
      <path d="M677.4,696.5c-6.9,13.4-16.6,24.4-29.1,33-12.5,8.6-28,12.8-46.6,12.8s-23.7-2.1-33.9-6.3c-10.3-4.2-19.2-10.1-26.6-17.7-7.5-7.6-13.3-16.5-17.5-26.8-4.2-10.3-6.3-21.6-6.3-33.9s2.1-23.7,6.3-34.1c4.2-10.4,10.1-19.3,17.5-26.8,7.5-7.5,16.3-13.3,26.6-17.5,10.3-4.2,21.6-6.3,33.9-6.3,18.4,0,33.9,4.2,46.4,12.7,12.6,8.4,21.8,19.4,27.6,32.8l-39,16.2c-3.7-7.4-8.4-12.9-14.1-16.7-5.7-3.8-12.9-5.7-21.6-5.7s-10.9,1.1-15.9,3.2c-5,2.2-9.4,5.2-13.2,9.1-3.8,3.9-6.8,8.7-8.9,14.3-2.2,5.6-3.2,11.9-3.2,18.8s1.1,13.2,3.2,18.8c2.2,5.6,5.1,10.4,8.9,14.3,3.8,3.9,8.2,6.9,13.2,9.1,5,2.2,10.3,3.2,15.9,3.2,8.9,0,16.4-2,22.6-6,6.2-4,11.1-9.8,14.8-17.4l39,16.9Z"/>
      <path d="M777.1,572.7c12.3,0,23.7,2.1,33.9,6.3,10.3,4.2,19.2,10.1,26.6,17.5,7.5,7.5,13.3,16.4,17.5,26.8,4.2,10.4,6.3,21.8,6.3,34.1s-2.1,23.7-6.3,34.1-10.1,19.3-17.5,26.8c-7.5,7.5-16.4,13.3-26.6,17.5-10.3,4.2-21.6,6.3-33.9,6.3s-23.7-2.1-33.9-6.3c-10.3-4.2-19.2-10.1-26.6-17.5-7.5-7.5-13.3-16.4-17.5-26.8-4.2-10.4-6.3-21.8-6.3-34.1s2.1-23.7,6.3-34.1c4.2-10.4,10.1-19.3,17.5-26.8,7.5-7.5,16.3-13.3,26.6-17.5,10.3-4.2,21.6-6.3,33.9-6.3ZM777.1,703c5.4,0,10.7-1,15.8-3.1,5.1-2.1,9.6-5,13.5-8.9s7-8.7,9.3-14.3c2.3-5.6,3.4-12,3.4-19.2s-1.1-13.5-3.4-19.2c-2.3-5.6-5.4-10.4-9.3-14.3-3.9-3.9-8.4-6.9-13.5-8.9-5.1-2.1-10.3-3.1-15.8-3.1s-10.9,1-15.9,3.1c-5,2.1-9.4,5-13.3,8.9-3.9,3.9-7,8.7-9.3,14.3-2.3,5.6-3.4,12-3.4,19.2s1.1,13.5,3.4,19.2c2.3,5.6,5.4,10.4,9.3,14.3,3.9,3.9,8.3,6.9,13.3,8.9,5,2.1,10.3,3.1,15.9,3.1Z"/>
      <path d="M997.3,716.3h-2.6c-5,8-11.7,14.3-20.1,19s-18.1,7-28.9,7c-20.1,0-35.1-6.2-45-18.5-9.9-12.3-14.8-28.8-14.8-49.4v-96.5h42.6v91.3c0,11.5,2.5,20,7.6,25.5,5.1,5.5,12.5,8.3,22.2,8.3s11-1.2,15.4-3.7c4.4-2.5,8.2-5.8,11.4-10.1,3.1-4.2,5.5-9.2,7.1-14.9,1.6-5.7,2.4-11.9,2.4-18.4v-78h42.6v159.2h-40v-20.8Z"/>
      <path d="M1073.6,577.9h40v22.1h2.6c1.9-3.9,4.5-7.5,7.8-10.7,3.2-3.2,6.9-6.1,10.9-8.5,4-2.4,8.3-4.4,13-5.8,4.7-1.5,9.3-2.2,13.8-2.2s10.4.6,14.5,1.8c4,1.2,7.4,2.8,10.2,4.7l-11.4,38c-2.6-1.3-5.5-2.3-8.6-3.1-3.1-.8-7-1.1-11.5-1.1s-11.2,1.1-15.9,3.4c-4.8,2.3-8.8,5.5-12.2,9.6-3.4,4.1-6,9-7.8,14.5-1.8,5.6-2.8,11.6-2.8,18.1v78.4h-42.5v-159.2Z"/>
      <path d="M1262.4,742.3c-10.4,0-19.7-1.3-27.8-3.9-8.1-2.6-15.2-6-21.1-10.2-6-4.2-11-9.1-15.1-14.6-4.1-5.5-7.3-11.1-9.4-16.7l38-16.2c3.7,8.2,8.6,14.3,14.8,18.4,6.2,4,13,6,20.6,6s14-1.4,18.5-4.2c4.5-2.8,6.8-6.2,6.8-10.1s-1.9-7.8-5.7-10.6c-3.8-2.7-10.3-5.1-19.7-7.3l-22.4-4.9c-5-1.1-10.1-2.8-15.4-5.2-5.3-2.4-10.1-5.4-14.5-9.1-4.3-3.7-7.9-8.1-10.7-13.3-2.8-5.2-4.2-11.3-4.2-18.2s1.7-14.7,5-20.8c3.4-6.1,8-11.2,13.8-15.4,5.8-4.2,12.7-7.5,20.6-9.7,7.9-2.3,16.4-3.4,25.5-3.4,15.2,0,28.7,3,40.6,8.9,11.9,6,20.7,15.4,26.3,28.4l-36.7,14.9c-3-6.3-7.5-10.8-13.3-13.6-5.8-2.8-11.7-4.2-17.5-4.2s-11.4,1.2-15.9,3.7c-4.5,2.5-6.8,5.7-6.8,9.6s1.9,6.6,5.7,8.8c3.8,2.2,8.9,4.1,15.4,5.8l24.4,5.8c16.2,3.9,28.3,10.1,36.2,18.7,7.9,8.6,11.9,18.7,11.9,30.4s-1.6,13.5-4.9,19.8c-3.2,6.3-7.9,11.9-13.8,16.7-6,4.9-13.1,8.7-21.4,11.5-8.3,2.8-17.6,4.2-27.8,4.2Z"/>
      <path d="M1508.6,698.7c-7.4,13-17.3,23.5-29.7,31.5-12.5,8-27.7,12-45.6,12s-23.3-2.1-33.6-6.3c-10.3-4.2-19.2-10.1-26.8-17.7-7.6-7.6-13.5-16.5-17.7-26.8-4.2-10.3-6.3-21.6-6.3-33.9s2.1-22.4,6.2-32.6c4.1-10.3,9.9-19.3,17.2-27,7.4-7.7,16.1-13.8,26.1-18.4,10.1-4.5,21.2-6.8,33.3-6.8s24.1,2.1,34.1,6.3c10,4.2,18.3,10.1,25,17.5,6.7,7.5,11.8,16.3,15.3,26.5,3.5,10.2,5.2,21.2,5.2,33.1v3.9c-.2,1.3-.3,2.5-.3,3.6-.2,1.1-.3,2.3-.3,3.6h-119.9c.9,6.5,2.6,12.1,5.4,16.7,2.7,4.7,6.1,8.6,10.1,11.7,4,3.1,8.4,5.4,13.2,6.8,4.8,1.4,9.6,2.1,14.6,2.1,9.7,0,17.8-2.2,24.2-6.7,6.4-4.4,11.4-10,15.1-16.7l35.4,17.5ZM1469.9,637c-.2-2.8-1.1-6-2.8-9.4-1.6-3.5-4-6.7-7.1-9.7-3.1-3-7-5.5-11.7-7.5-4.7-1.9-10.2-2.9-16.7-2.9s-17.1,2.6-24,7.8c-6.9,5.2-11.8,12.5-14.6,21.8h77Z"/>
    </g>
  </g>
</svg>