<svg width="84" height="48" viewBox="0 0 84 48" fill="none" xmlns="http://www.w3.org/2000/svg">
<rect width="84" height="48" fill="white"/>
<path d="M83.7504 33.8897V40H62.9109V34.5484C67.0172 30.7084 72.2025 25.1727 74.0945 22.9864C75.58 21.2486 76.2527 19.7771 76.2527 18.2495C76.2527 16.5538 75.2156 15.3065 73.2816 15.3065C70.8431 15.3065 69.3155 17.1424 69.3155 20.2116C69.3155 20.5199 69.3155 20.8843 69.3576 21.1926L63.1352 21.7251C62.6447 13.7789 67.0592 9 74.5429 9C79.7703 9 83.3861 12.2093 83.3861 16.9042C83.3861 21.9914 80.9055 25.0325 75.1736 31.0027L72.1044 34.17L83.7504 33.8897ZM44.3838 13.849L60.5285 11.5787V16.9182L50.1998 18.0814V23.6591L59.0429 22.9864V28.1297L50.1998 28.6203V34.9548L60.5285 34.6044V40H44.3838V13.849ZM33.3684 35.3612L42.2957 35.179V40H28.3092V16.0773L33.3544 15.3626V35.3612H33.3684ZM13.9304 18.0814L26.109 16.3856V20.7161L18.3449 21.6551V26.476L24.9738 25.9855V30.1338L18.3449 30.5402V35.8938L26.109 35.7116V40H13.9304V18.0814ZM0 20.0014L11.9964 18.3476V22.6781L8.07233 23.0845V40H3.92405V23.533L0 23.9394V20.0014Z" fill="black"/>
</svg>
