<svg width="32" height="32" viewBox="0 0 32 32" fill="none" xmlns="http://www.w3.org/2000/svg">
<mask id="mask0_586_78" style="mask-type:luminance" maskUnits="userSpaceOnUse" x="6" y="2" width="21" height="26">
<path d="M27 2H6V27.2673H27V2Z" fill="white"/>
</mask>
<g mask="url(#mask0_586_78)">
<path d="M6 24.9457L19.2611 17.9098V14.095L6 21.0455V24.9457Z" fill="#FFDB00"/>
<path d="M10.6761 14.7812L11.8683 14.1555C12.336 13.9102 12.6287 13.4266 12.6287 12.9005V10.2838L9.3125 8.37817V15.5065L9.68017 15.3038L10.6761 14.7812Z" fill="#F26522"/>
<path d="M25.8935 14.0951L22.5773 16.0007L19.2612 17.9063V21.7176L25.8935 17.9063C26.7788 17.3979 27.0001 16.3704 27.0001 15.3536V14.0951V13.4587V12.1895C27.0001 12.9325 26.6289 13.672 25.8935 14.0951Z" fill="#F26522"/>
<path d="M9.31778 19.5077C9.31085 19.5077 9.31778 19.5007 9.31778 19.5077V19.5077Z" fill="#F26522"/>
<path d="M6.72461 4.00867L6.88167 3.92334C6.82813 3.94823 6.77815 3.97667 6.72461 4.00867Z" fill="#ED1C24"/>
<path d="M21.1672 11.3787L19.2611 10.2837L15.9449 8.37806L12.6288 6.47243L9.36614 4.59169C9.33401 4.57392 9.29831 4.5597 9.25905 4.55259L6.87455 4.04774C6.77104 4.02641 6.66038 4.04774 6.57471 4.11528C6.23202 4.38904 6 4.80856 6 5.3063V17.2307L9.31616 15.5028V9.71837C9.31616 9.1211 9.96226 8.75135 10.4834 9.04647L12.6323 10.2837L15.9485 12.1893L19.2647 14.0949L21.1708 12.9999C21.792 12.6408 21.792 11.7378 21.1672 11.3787Z" fill="#ED1C24"/>
<path d="M6.71753 4.01268C6.72143 4.01268 6.72532 4.00879 6.72921 4.00879L6.71753 4.01268Z" fill="#FFDB00"/>
<path d="M8.30606 3.9838C7.83487 3.7136 7.31371 3.72427 6.88535 3.92336L6.7283 4.00869C6.72472 4.00869 6.57837 4.11179 6.57837 4.11535L9.31982 4.56331L8.30606 3.9838Z" fill="#ED1C24"/>
<path d="M13.1678 21.1025C12.8679 20.9994 12.6323 20.7185 12.6323 20.3559V17.9099V21.3834L13.1678 21.1025Z" fill="#FFDB00"/>
<path d="M26.9892 12.1893H26.9999C26.9999 11.4463 26.6322 10.7068 25.8933 10.2837L22.5771 8.37809L19.2609 6.47247L15.9448 4.56685L11.9576 2.27014C11.3472 1.91817 10.5975 1.91106 9.97644 2.24525L6.88159 3.92334C7.30995 3.72069 7.83467 3.71358 8.30229 3.98378L9.31249 4.56685L12.6287 6.47247L15.9448 8.37809L19.2609 10.2837L21.16 11.3752C21.7882 11.7378 21.7882 12.6409 21.16 13.0035L19.2609 14.095L15.9448 16.0006L12.6287 17.9062V20.3523C12.6287 20.6865 12.8321 20.9531 13.0999 21.074C13.1391 21.0918 13.1819 21.0882 13.2212 21.0704L19.2574 17.9098H19.2609L22.5771 16.0041L25.8933 14.0985C26.6287 13.6754 26.9963 12.9395 26.9999 12.2C26.9963 12.1929 26.9927 12.1893 26.9892 12.1893Z" fill="#FFDB00"/>
<path d="M6 24.8568V25.0133C6 26.7091 7.81336 27.7935 9.31616 26.9971V23.1218L6 24.8568Z" fill="#F26522"/>
<path d="M15.9449 19.8155L15.5772 20.0253L13.7996 21.0456C13.8067 21.0421 13.8103 21.0385 13.8174 21.0385L15.5772 20.0253L15.9449 19.8155L19.2611 17.9099H19.2575L15.9449 19.8155Z" fill="#F26522"/>
<path d="M15.9485 19.8155L15.5808 20.0253L13.821 21.0385C13.8139 21.0421 13.8103 21.0456 13.8031 21.0456L12.6288 21.7212V21.3834L9.31616 23.1184V26.9971L19.2575 21.7212H19.2611V17.9099L15.9485 19.8155Z" fill="#F26522"/>
<path d="M13.8031 21.0491L15.5807 20.0287L15.9484 19.8189L19.2611 17.9133L13.1677 21.106C13.3676 21.1699 13.5925 21.1628 13.8031 21.0491Z" fill="#F26522"/>
<path d="M13.1678 21.1026L12.6323 21.3834V21.7212L13.8067 21.0457C13.5925 21.163 13.3676 21.1701 13.1678 21.1026Z" fill="#F26522"/>
</g>
</svg>
