<svg width="16" height="16" viewBox="0 0 16 16" fill="none" xmlns="http://www.w3.org/2000/svg">
<g clip-path="url(#clip0_652_433)">
<rect width="16" height="16" fill="white"/>
<path d="M10.6116 5.03013C10.5313 4.9947 10.4448 4.97547 10.357 4.97356L5.64298 4.97356C5.55507 4.97356 5.46803 4.99087 5.38681 5.02451C5.3056 5.05815 5.2318 5.10746 5.16964 5.16962C5.04411 5.29516 4.97358 5.46542 4.97358 5.64295C4.97358 5.73086 4.9909 5.8179 5.02454 5.89912C5.05818 5.98033 5.10749 6.05413 5.16964 6.11629C5.29518 6.24182 5.46544 6.31235 5.64298 6.31235L8.74953 6.30763L5.17157 9.88559C5.04655 10.0106 4.97631 10.1802 4.97631 10.357C4.97631 10.5338 5.04655 10.7034 5.17157 10.8284C5.2966 10.9534 5.46617 11.0237 5.64298 11.0237C5.81979 11.0237 5.98936 10.9534 6.11438 10.8284L9.69234 7.25044L9.68763 10.357C9.68727 10.445 9.70434 10.5322 9.73785 10.6136C9.77136 10.695 9.82065 10.7689 9.88288 10.8311C9.94512 10.8934 10.0191 10.9427 10.1004 10.9762C10.1818 11.0097 10.269 11.0268 10.357 11.0264C10.445 11.0268 10.5322 11.0097 10.6136 10.9762C10.695 10.9427 10.7689 10.8934 10.8312 10.8311C10.8934 10.7689 10.9427 10.695 10.9762 10.6136C11.0097 10.5322 11.0268 10.445 11.0264 10.357L11.0264 5.64295C11.0245 5.5552 11.0053 5.4687 10.9698 5.38839C10.9022 5.22648 10.7735 5.09775 10.6116 5.03013Z" fill="black"/>
</g>
<defs>
<clipPath id="clip0_652_433">
<rect width="16" height="16" fill="white"/>
</clipPath>
</defs>
</svg>
