<svg width="24" height="24" viewBox="0 0 24 24" fill="none" xmlns="http://www.w3.org/2000/svg">
<path d="M17.92 11.6195C17.8724 11.4967 17.801 11.3846 17.71 11.2895L12.71 6.28945C12.6168 6.19621 12.5061 6.12225 12.3842 6.07179C12.2624 6.02133 12.1319 5.99536 12 5.99536C11.7337 5.99536 11.4783 6.10115 11.29 6.28945C11.1968 6.38269 11.1228 6.49338 11.0723 6.6152C11.0219 6.73703 10.9959 6.86759 10.9959 6.99945C10.9959 7.26575 11.1017 7.52115 11.29 7.70945L14.59 10.9995H7C6.73478 10.9995 6.48043 11.1048 6.29289 11.2923C6.10536 11.4799 6 11.7342 6 11.9995C6 12.2647 6.10536 12.519 6.29289 12.7066C6.48043 12.8941 6.73478 12.9995 7 12.9995H14.59L11.29 16.2895C11.1963 16.3824 11.1219 16.493 11.0711 16.6149C11.0203 16.7367 10.9942 16.8674 10.9942 16.9995C10.9942 17.1315 11.0203 17.2622 11.0711 17.384C11.1219 17.5059 11.1963 17.6165 11.29 17.7095C11.383 17.8032 11.4936 17.8776 11.6154 17.9283C11.7373 17.9791 11.868 18.0053 12 18.0053C12.132 18.0053 12.2627 17.9791 12.3846 17.9283C12.5064 17.8776 12.617 17.8032 12.71 17.7095L17.71 12.7095C17.801 12.6143 17.8724 12.5022 17.92 12.3795C18.02 12.136 18.02 11.8629 17.92 11.6195Z" fill="#3693FF"/>
</svg>
