<svg width="24" height="24" viewBox="0 0 24 24" fill="none" xmlns="http://www.w3.org/2000/svg">
<g clip-path="url(#clip0_652_429)">
<rect width="24" height="24" fill="white"/>
<path d="M15.9174 7.54519C15.7969 7.49205 15.6672 7.46321 15.5355 7.46034L8.46447 7.46034C8.33261 7.46034 8.20204 7.48631 8.08022 7.53677C7.9584 7.58723 7.8477 7.66119 7.75447 7.75443C7.56616 7.94273 7.46037 8.19813 7.46037 8.46443C7.46037 8.59629 7.48635 8.72686 7.53681 8.84868C7.58727 8.9705 7.66123 9.08119 7.75447 9.17443C7.94277 9.36273 8.19816 9.46852 8.46447 9.46852L13.1243 9.46145L7.75736 14.8284C7.56982 15.0159 7.46447 15.2703 7.46447 15.5355C7.46447 15.8007 7.56982 16.0551 7.75736 16.2426C7.9449 16.4301 8.19925 16.5355 8.46447 16.5355C8.72968 16.5355 8.98404 16.4301 9.17157 16.2426L14.5385 10.8757L14.5314 15.5355C14.5309 15.6675 14.5565 15.7983 14.6068 15.9204C14.657 16.0425 14.731 16.1534 14.8243 16.2467C14.9177 16.3401 15.0286 16.414 15.1506 16.4643C15.2727 16.5145 15.4035 16.5401 15.5355 16.5396C15.6675 16.5401 15.7984 16.5145 15.9204 16.4643C16.0425 16.414 16.1534 16.3401 16.2467 16.2467C16.3401 16.1534 16.414 16.0425 16.4643 15.9204C16.5146 15.7983 16.5402 15.6675 16.5396 15.5355L16.5396 8.46443C16.5368 8.33281 16.5079 8.20304 16.4548 8.08259C16.3533 7.83972 16.1602 7.64662 15.9174 7.54519Z" fill="#37B2FF"/>
</g>
<defs>
<clipPath id="clip0_652_429">
<rect width="24" height="24" fill="white"/>
</clipPath>
</defs>
</svg>
