<svg width="24" height="24" viewBox="0 0 24 24" fill="none" xmlns="http://www.w3.org/2000/svg">
<path d="M17.71 11.2895C17.617 11.1958 17.5064 11.1214 17.3846 11.0706C17.2627 11.0199 17.132 10.9937 17 10.9937C16.868 10.9937 16.7373 11.0199 16.6154 11.0706C16.4936 11.1214 16.383 11.1958 16.29 11.2895L13 14.5895V6.99951C13 6.7343 12.8946 6.47994 12.7071 6.29241C12.5196 6.10487 12.2652 5.99951 12 5.99951C11.7348 5.99951 11.4804 6.10487 11.2929 6.29241C11.1054 6.47994 11 6.7343 11 6.99951V14.5895L7.71 11.2895C7.5217 11.1012 7.2663 10.9954 7 10.9954C6.7337 10.9954 6.47831 11.1012 6.29 11.2895C6.1017 11.4778 5.99591 11.7332 5.99591 11.9995C5.99591 12.2658 6.1017 12.5212 6.29 12.7095L11.29 17.7095C11.3851 17.8006 11.4973 17.8719 11.62 17.9195C11.7397 17.9724 11.8691 17.9997 12 17.9997C12.1309 17.9997 12.2603 17.9724 12.38 17.9195C12.5028 17.8719 12.6149 17.8006 12.71 17.7095L17.71 12.7095C17.8037 12.6165 17.8781 12.5059 17.9289 12.3841C17.9797 12.2622 18.0058 12.1315 18.0058 11.9995C18.0058 11.8675 17.9797 11.7368 17.9289 11.6149C17.8781 11.4931 17.8037 11.3825 17.71 11.2895Z" fill="#37B2FF"/>
</svg>
