<svg width="16" height="16" viewBox="0 0 16 16" fill="none" xmlns="http://www.w3.org/2000/svg">
<path d="M7.99998 1.3335C6.68144 1.3335 5.39251 1.72449 4.29618 2.45703C3.19985 3.18957 2.34537 4.23077 1.84079 5.44894C1.3362 6.66711 1.20418 8.00756 1.46141 9.30076C1.71865 10.594 2.35359 11.7819 3.28594 12.7142C4.21829 13.6466 5.40617 14.2815 6.69938 14.5387C7.99259 14.796 9.33303 14.6639 10.5512 14.1594C11.7694 13.6548 12.8106 12.8003 13.5431 11.704C14.2757 10.6076 14.6666 9.3187 14.6666 8.00016C14.6647 6.23266 13.9617 4.53811 12.7119 3.28829C11.462 2.03847 9.76749 1.33546 7.99998 1.3335V1.3335ZM7.99998 13.3335C6.94515 13.3335 5.914 13.0207 5.03694 12.4347C4.15988 11.8486 3.47629 11.0157 3.07263 10.0411C2.66896 9.0666 2.56334 7.99425 2.76913 6.95968C2.97492 5.92512 3.48287 4.97481 4.22875 4.22893C4.97463 3.48305 5.92494 2.9751 6.9595 2.76931C7.99407 2.56352 9.06642 2.66914 10.041 3.07281C11.0155 3.47647 11.8485 4.16006 12.4345 5.03712C13.0205 5.91418 13.3333 6.94533 13.3333 8.00016C13.3317 9.41415 12.7693 10.7698 11.7694 11.7696C10.7696 12.7695 9.41397 13.3319 7.99998 13.3335V13.3335ZM7.99998 7.66683C7.82317 7.66683 7.6536 7.73707 7.52858 7.86209C7.40355 7.98712 7.33332 8.15668 7.33332 8.3335V10.3335C7.33332 10.5103 7.40355 10.6799 7.52858 10.8049C7.6536 10.9299 7.82317 11.0002 7.99998 11.0002C8.17679 11.0002 8.34636 10.9299 8.47139 10.8049C8.59641 10.6799 8.66665 10.5103 8.66665 10.3335V8.3335C8.66665 8.15668 8.59641 7.98712 8.47139 7.86209C8.34636 7.73707 8.17679 7.66683 7.99998 7.66683ZM7.99998 5.00016C7.83517 5.00016 7.67405 5.04904 7.53701 5.1406C7.39997 5.23217 7.29316 5.36232 7.23008 5.51459C7.16701 5.66686 7.15051 5.83442 7.18266 5.99607C7.21482 6.15772 7.29418 6.30621 7.41073 6.42275C7.52727 6.5393 7.67576 6.61866 7.83741 6.65082C7.99906 6.68297 8.16661 6.66647 8.31889 6.6034C8.47116 6.54032 8.60131 6.43351 8.69287 6.29647C8.78444 6.15943 8.83332 5.99831 8.83332 5.8335C8.83332 5.61248 8.74552 5.40052 8.58924 5.24424C8.43296 5.08796 8.221 5.00016 7.99998 5.00016V5.00016Z" fill="black"/>
</svg>
