<svg width="16" height="16" viewBox="0 0 16 16" fill="none" xmlns="http://www.w3.org/2000/svg">
<g clip-path="url(#clip0_660_581)">
<path d="M16 0H0V16H16V0Z" fill="white"/>
<mask id="mask0_660_581" style="mask-type:luminance" maskUnits="userSpaceOnUse" x="0" y="3" width="10" height="10">
<path d="M10 3H0V13H10V3Z" fill="white"/>
</mask>
<g mask="url(#mask0_660_581)">
<path d="M5 3L5.3125 4.0625C5.8125 5.8125 7.1875 7.1875 8.9375 7.6875L10 8L8.9375 8.3125C7.1875 8.8125 5.8125 10.1875 5.3125 11.9375L5 13L4.6875 11.9375C4.1875 10.1875 2.8125 8.8125 1.0625 8.3125L0 8L1.0625 7.6875C2.8125 7.1875 4.1875 5.8125 4.6875 4.0625L5 3Z" fill="#3693FF"/>
</g>
</g>
<defs>
<clipPath id="clip0_660_581">
<rect width="16" height="16" fill="white"/>
</clipPath>
</defs>
</svg>
